<svg xmlns="http://www.w3.org/2000/svg" xmlns:xlink="http://www.w3.org/1999/xlink" width="1080" zoomAndPan="magnify" viewBox="0 0 810 809.999993" height="1080" preserveAspectRatio="xMidYMid meet" version="1.0"><defs><g/><clipPath id="25de3f8f03"><path d="M 120.574219 156.488281 L 676.011719 156.488281 L 676.011719 789.796875 L 120.574219 789.796875 Z M 120.574219 156.488281 " clip-rule="nonzero"/></clipPath></defs><g clip-path="url(#25de3f8f03)"><path fill="#000000" d="M 658.714844 620.082031 C 638.332031 608.65625 615.488281 595.964844 594.777344 584.464844 C 618.128906 504.085938 641.378906 423.597656 664.480469 342.972656 C 666.15625 435.9375 666.382812 530.355469 667.628906 623.746094 C 664.417969 624.246094 661.542969 621.664062 658.714844 620.082031 Z M 420.761719 769.371094 C 474.925781 710.179688 533.011719 650.375 589.007812 591.269531 C 614.769531 604.457031 638.953125 619.226562 664.480469 632.652344 C 583.65625 678.640625 501.703125 723.5 420.761719 769.371094 Z M 398.226562 779.324219 C 339.917969 716.246094 278.230469 653.753906 221.074219 591.269531 C 338.488281 590.054688 458.144531 591.089844 576.425781 590.746094 C 577.675781 592.460938 573.902344 594.15625 572.238281 595.984375 C 516.269531 657.578125 455.597656 718.675781 398.226562 779.324219 Z M 133.023438 633.175781 C 157.386719 619.289062 181.574219 605.222656 206.921875 592.316406 C 212.320312 593.871094 215.371094 598.59375 218.976562 602.269531 C 257.636719 641.691406 296.746094 683.015625 334.808594 723.800781 C 348.992188 738.996094 362.933594 754.183594 377.261719 768.847656 C 296.324219 725.242188 214.65625 677.824219 133.023438 633.175781 Z M 132.496094 342.972656 C 156.632812 422.566406 178.824219 504.113281 202.726562 583.9375 C 179.195312 597.78125 153.601562 612.363281 129.875 624.273438 C 130.761719 530.515625 132.039062 437.15625 132.496094 342.972656 Z M 389.839844 246.066406 C 331.496094 355.550781 268.609375 465.046875 209.019531 575.03125 C 183.464844 489.34375 158.984375 402.585938 134.070312 316.257812 C 219.746094 293.277344 304.722656 269.601562 389.839844 246.066406 Z M 394.035156 166.96875 C 395.257812 188.96875 394.207031 213.238281 394.558594 236.113281 C 315.152344 258.027344 235.867188 280.0625 156.082031 301.59375 C 235.191406 256.507812 314.578125 211.707031 394.035156 166.96875 Z M 582.71875 582.363281 C 460.351562 582.644531 336.824219 581.765625 215.308594 582.890625 C 214.882812 579.101562 217.816406 575.96875 219.503906 572.9375 C 278.820312 466.15625 339.136719 356.027344 398.75 249.207031 C 460.074219 359.914062 522.753906 472.039062 582.71875 582.363281 Z M 663.433594 316.785156 C 638.59375 402.832031 613.613281 488.746094 589.007812 575.03125 C 528.152344 465.613281 467.359375 356.113281 407.136719 246.066406 C 492.523438 269.6875 578.363281 292.847656 663.433594 316.785156 Z M 402.945312 167.488281 C 403.410156 167.167969 403.882812 166.855469 403.992188 167.488281 C 483.667969 211.488281 561.769531 257.046875 641.417969 301.066406 C 562.457031 280.984375 482.207031 257.636719 402.945312 236.113281 C 402.945312 213.238281 402.945312 190.367188 402.945312 167.488281 Z M 673.394531 311.015625 C 652.289062 296.570312 628.664062 284.972656 605.777344 271.734375 C 544.316406 236.175781 480.238281 200.019531 417.621094 164.871094 C 411.726562 161.5625 403.976562 156.339844 398.75 156.488281 C 390.96875 156.71875 382.648438 163.484375 375.6875 167.488281 C 297.039062 212.792969 219.300781 256.070312 139.835938 300.542969 C 134.882812 303.316406 124.863281 308.75 124.109375 311.546875 C 122.976562 315.753906 124.636719 324.308594 124.636719 331.449219 C 124.636719 351.597656 124.394531 373.433594 124.109375 392.214844 C 123.058594 461.46875 122.011719 525.011719 122.011719 594.414062 C 122.011719 606.324219 118.773438 625.484375 122.011719 634.222656 C 123.511719 638.257812 132.273438 642.160156 137.738281 645.226562 C 219.648438 691.132812 299.269531 735.429688 380.402344 780.898438 C 385.976562 784.019531 393.757812 789.933594 398.75 789.800781 C 403.386719 789.683594 410.714844 784.152344 416.570312 780.898438 C 498.351562 735.386719 578.136719 690.355469 659.238281 645.226562 C 665.628906 641.667969 674.316406 638.371094 676.007812 633.175781 C 675.285156 525.988281 673.039062 417.539062 673.394531 311.015625 " fill-opacity="1" fill-rule="nonzero"/></g><path fill="#27b89b" d="M 363.109375 218.300781 C 362.664062 221.4375 361.167969 222.460938 357.867188 224.589844 C 373.371094 240.925781 313.703125 257.226562 319.609375 234.015625 C 320.613281 230.0625 325.050781 228.570312 330.089844 226.683594 C 321.179688 210.773438 365.84375 199.132812 363.109375 218.300781 Z M 300.742188 238.207031 C 294.011719 244.386719 289.464844 248.222656 281.347656 254.445312 C 277.988281 257.023438 271.332031 259.746094 270.863281 253.921875 C 270.539062 249.871094 283.980469 241.859375 286.589844 239.777344 C 292.878906 234.765625 297.214844 226.699219 303.363281 225.636719 C 305.769531 225.21875 308.03125 225.480469 308.601562 228.257812 C 309.398438 232.121094 303.285156 235.867188 300.742188 238.207031 Z M 394.035156 166.964844 C 314.578125 211.707031 235.191406 256.507812 156.082031 301.589844 C 235.867188 280.0625 315.15625 258.027344 394.558594 236.113281 C 394.207031 213.234375 395.257812 188.964844 394.035156 166.964844 " fill-opacity="1" fill-rule="nonzero"/><path fill="#27b89b" d="M 498.859375 243.964844 C 498.613281 244.730469 499.253906 248.675781 497.289062 249.207031 C 488.902344 250.941406 489.296875 243.203125 484.183594 240.824219 C 480.46875 239.097656 472.488281 238.03125 466.363281 236.632812 C 459.472656 235.058594 447.945312 235.308594 448.019531 228.253906 C 448.058594 224.390625 452.742188 222.324219 456.40625 219.347656 C 459.152344 217.117188 462.640625 211.417969 465.316406 210.96875 C 468.46875 210.433594 470.289062 212.773438 470.554688 213.585938 C 472.835938 220.554688 462.71875 222.480469 460.597656 226.679688 C 465.316406 228.246094 470.820312 229.039062 475.796875 230.347656 C 475.160156 226.824219 476.753906 223.277344 479.464844 223.015625 C 484.347656 222.546875 486.316406 232.492188 489.949219 234.015625 C 496.292969 235.683594 509.671875 234.738281 510.390625 240.824219 C 511.035156 246.285156 504.273438 245.972656 498.859375 243.964844 Z M 403.996094 167.488281 C 403.882812 166.855469 403.410156 167.167969 402.945312 167.488281 C 402.945312 190.363281 402.945312 213.234375 402.945312 236.109375 C 482.210938 257.636719 562.453125 280.984375 641.421875 301.0625 C 561.769531 257.046875 483.667969 211.484375 403.996094 167.488281 " fill-opacity="1" fill-rule="nonzero"/><path fill="#000000" d="M 338.476562 221.445312 C 342.367188 218.835938 348.945312 216.242188 354.199219 216.730469 C 350.640625 219.984375 345.75 221.902344 338.476562 221.445312 Z M 328.519531 237.160156 C 334.363281 233.175781 343.121094 230.058594 351.054688 229.828125 C 346.761719 235.492188 338.328125 237.011719 328.519531 237.160156 Z M 330.089844 226.683594 C 325.050781 228.570312 320.613281 230.066406 319.609375 234.015625 C 313.703125 257.226562 373.371094 240.925781 357.867188 224.585938 C 361.167969 222.460938 362.664062 221.4375 363.109375 218.304688 C 365.84375 199.132812 321.179688 210.777344 330.089844 226.683594 " fill-opacity="1" fill-rule="nonzero"/><path fill="#000000" d="M 510.390625 240.828125 C 509.671875 234.738281 496.292969 235.6875 489.949219 234.015625 C 486.3125 232.496094 484.347656 222.546875 479.464844 223.015625 C 476.753906 223.277344 475.160156 226.824219 475.792969 230.347656 C 470.820312 229.039062 465.316406 228.25 460.597656 226.683594 C 462.71875 222.480469 472.835938 220.554688 470.554688 213.585938 C 470.289062 212.777344 468.464844 210.4375 465.3125 210.96875 C 462.640625 211.417969 459.148438 217.121094 456.40625 219.351562 C 452.738281 222.328125 448.058594 224.394531 448.019531 228.253906 C 447.945312 235.3125 459.472656 235.0625 466.359375 236.636719 C 472.484375 238.03125 480.464844 239.101562 484.183594 240.828125 C 489.296875 243.203125 488.898438 250.941406 497.289062 249.207031 C 499.253906 248.675781 498.609375 244.734375 498.855469 243.96875 C 504.269531 245.976562 511.035156 246.285156 510.390625 240.828125 " fill-opacity="1" fill-rule="nonzero"/><path fill="#27b89b" d="M 338.476562 221.445312 C 345.75 221.898438 350.640625 219.980469 354.199219 216.730469 C 348.945312 216.242188 342.367188 218.835938 338.476562 221.445312 " fill-opacity="1" fill-rule="nonzero"/><path fill="#000000" d="M 303.359375 225.636719 C 297.214844 226.699219 292.878906 234.765625 286.589844 239.78125 C 283.980469 241.859375 270.539062 249.875 270.863281 253.921875 C 271.332031 259.75 277.988281 257.023438 281.347656 254.445312 C 289.464844 248.222656 294.011719 244.390625 300.738281 238.210938 C 303.285156 235.871094 309.398438 232.128906 308.601562 228.257812 C 308.03125 225.480469 305.769531 225.21875 303.359375 225.636719 " fill-opacity="1" fill-rule="nonzero"/><path fill="#27b89b" d="M 351.054688 229.824219 C 343.121094 230.058594 334.363281 233.175781 328.519531 237.160156 C 338.328125 237.011719 346.761719 235.492188 351.054688 229.824219 " fill-opacity="1" fill-rule="nonzero"/><path fill="#11e8bd" d="M 201.15625 370.214844 C 202.234375 360.765625 211.878906 347.292969 218.453125 343.496094 C 221.003906 342.023438 225.886719 340.5 230.507812 341.925781 C 245.734375 346.625 242.183594 368.394531 245.183594 386.453125 C 249.21875 380.386719 252.433594 374.585938 256.191406 369.167969 C 258.453125 365.902344 264.433594 354.78125 269.816406 355.023438 C 281.015625 355.519531 270.535156 367.835938 267.71875 371.785156 C 264.355469 376.511719 262.832031 378.679688 259.855469 383.308594 C 255.777344 389.660156 250.976562 406.324219 244.132812 406.359375 C 235.484375 406.402344 233.285156 387.449219 232.605469 376.5 C 231.976562 366.4375 233.207031 356.132812 226.316406 352.402344 C 220.273438 357.21875 212.109375 364.257812 212.164062 373.355469 C 212.195312 378.214844 218.429688 385.578125 211.640625 387.5 C 204.207031 389.601562 200.125 379.285156 201.15625 370.214844 Z M 389.839844 246.066406 C 304.722656 269.597656 219.746094 293.28125 134.070312 316.257812 C 158.984375 402.585938 183.464844 489.34375 209.019531 575.03125 C 268.609375 465.046875 331.496094 355.550781 389.839844 246.066406 " fill-opacity="1" fill-rule="nonzero"/><path fill="#11e8bd" d="M 519.296875 336.6875 C 521.933594 337.703125 521.175781 339.746094 524.011719 342.972656 C 532.839844 340.792969 539.851562 336.800781 547.601562 333.542969 C 545.015625 328.449219 536.257812 329.515625 537.644531 320.449219 C 542.714844 313.722656 549.285156 320.859375 555.464844 324.640625 C 561.265625 328.1875 567.621094 329.949219 563.847656 337.734375 C 552.742188 343.046875 542.121094 348.847656 529.78125 352.925781 C 532.859375 356.433594 537.9375 370.386719 527.683594 368.644531 C 523.867188 367.992188 522.882812 362.722656 518.777344 355.546875 C 515.328125 349.53125 510.671875 345.175781 511.4375 340.878906 C 512.035156 337.503906 515.695312 335.292969 519.296875 336.6875 Z M 593.722656 378.070312 C 590.050781 383.316406 572.347656 383.355469 566.46875 386.453125 C 568.21875 391.164062 571.710938 394.132812 573.285156 399.027344 C 577.730469 397.175781 588.125 388.265625 590.578125 396.40625 C 592.621094 403.171875 583.515625 406.402344 579.046875 408.453125 C 582.578125 412.5 590.804688 427.25 581.148438 427.832031 C 574.003906 428.265625 573.5 417.410156 569.09375 413.6875 C 564.988281 414.660156 562.769531 417.503906 557.035156 416.835938 C 550.433594 411.636719 557.746094 404.6875 563.324219 403.738281 C 562.03125 395.902344 547.273438 386.878906 553.890625 378.59375 C 555.867188 376.117188 580.945312 371.074219 587.960938 369.167969 C 592.15625 368.027344 597.265625 373.011719 593.722656 378.070312 Z M 589.007812 575.03125 C 613.613281 488.746094 638.59375 402.835938 663.433594 316.78125 C 578.359375 292.847656 492.523438 269.6875 407.136719 246.066406 C 467.359375 356.113281 528.15625 465.613281 589.007812 575.03125 " fill-opacity="1" fill-rule="nonzero"/><path fill="#27b89b" d="M 357.34375 432.546875 C 354.304688 433.679688 351.152344 436.496094 348.957031 439.882812 C 345.910156 444.597656 346.246094 450.882812 341.621094 451.410156 C 330.757812 452.632812 337.570312 436.921875 340.574219 432.546875 C 347.316406 422.734375 367.066406 414.59375 379.359375 425.738281 C 385.589844 431.386719 387.75 442.050781 385.125 450.359375 C 379.238281 468.957031 354.914062 473.003906 346.863281 492.265625 C 356.191406 493.460938 388.882812 487.25 390.363281 496.453125 C 392.019531 506.738281 375.277344 502.359375 363.109375 502.742188 C 353.628906 503.039062 334.980469 506.882812 333.761719 498.027344 C 332.597656 489.597656 343.4375 476.308594 347.910156 471.835938 C 356.082031 463.671875 373.460938 456.15625 375.164062 445.644531 C 377.101562 433.699219 366.382812 429.183594 357.34375 432.546875 Z M 429.671875 426.785156 C 433 425.207031 436.785156 424.636719 441.730469 424.167969 C 469.28125 421.535156 478.878906 458.792969 471.082031 485.980469 C 469.292969 492.21875 464.351562 500.050781 459.550781 503.265625 C 450.773438 509.140625 434.023438 508.972656 423.910156 501.171875 C 404.652344 486.320312 409.824219 436.199219 429.671875 426.785156 Z M 215.308594 582.886719 C 336.824219 581.765625 460.351562 582.644531 582.71875 582.363281 C 522.753906 472.039062 460.078125 359.910156 398.75 249.207031 C 339.136719 356.027344 278.820312 466.15625 219.503906 572.9375 C 217.816406 575.96875 214.882812 579.101562 215.308594 582.886719 " fill-opacity="1" fill-rule="nonzero"/><path fill="#000000" d="M 518.777344 355.546875 C 522.882812 362.722656 523.867188 367.992188 527.683594 368.640625 C 537.9375 370.390625 532.859375 356.433594 529.78125 352.929688 C 542.121094 348.847656 552.738281 343.046875 563.851562 337.738281 C 567.621094 329.953125 561.261719 328.1875 555.464844 324.640625 C 549.285156 320.863281 542.710938 313.722656 537.640625 320.449219 C 536.257812 329.515625 545.011719 328.449219 547.601562 333.542969 C 539.851562 336.800781 532.835938 340.789062 524.015625 342.976562 C 521.175781 339.746094 521.933594 337.707031 519.296875 336.6875 C 515.695312 335.296875 512.03125 337.503906 511.4375 340.878906 C 510.675781 345.175781 515.332031 349.53125 518.777344 355.546875 " fill-opacity="1" fill-rule="nonzero"/><path fill="#000000" d="M 211.640625 387.5 C 218.429688 385.578125 212.195312 378.210938 212.164062 373.355469 C 212.109375 364.257812 220.273438 357.214844 226.316406 352.402344 C 233.207031 356.132812 231.976562 366.4375 232.605469 376.5 C 233.285156 387.449219 235.484375 406.398438 244.132812 406.359375 C 250.976562 406.324219 255.777344 389.660156 259.859375 383.304688 C 262.832031 378.675781 264.355469 376.507812 267.722656 371.785156 C 270.535156 367.832031 281.015625 355.519531 269.820312 355.023438 C 264.433594 354.78125 258.453125 365.898438 256.191406 369.164062 C 252.433594 374.585938 249.21875 380.386719 245.183594 386.453125 C 242.183594 368.394531 245.734375 346.621094 230.507812 341.925781 C 225.886719 340.5 221.003906 342.023438 218.453125 343.496094 C 211.878906 347.292969 202.234375 360.765625 201.15625 370.210938 C 200.125 379.285156 204.207031 389.601562 211.640625 387.5 " fill-opacity="1" fill-rule="nonzero"/><path fill="#27b89b" d="M 166.566406 534.171875 C 162.40625 540.847656 159.539062 548.804688 156.082031 556.171875 C 159.414062 556.625 161.847656 554.867188 164.46875 556.171875 C 173.261719 565.203125 147.839844 568.167969 146.125 559.839844 C 145.046875 554.621094 151.476562 546.5 153.460938 542.03125 C 156.554688 535.070312 158.328125 530.324219 161.847656 525.265625 C 157.738281 519.34375 160.785156 516.082031 163.421875 515.835938 C 167 515.507812 176.242188 531.203125 176 534.171875 C 175.558594 539.589844 168.5 538.9375 166.566406 534.171875 Z M 135.640625 498.027344 C 136.789062 488.363281 145.300781 481.964844 155.035156 488.597656 C 153.917969 480.109375 149.503906 474.917969 148.746094 466.074219 C 157.730469 457.632812 161.15625 479.191406 163.421875 486.5 C 165.023438 491.683594 171.6875 506.15625 164.46875 507.457031 C 159.304688 508.386719 142.863281 481.421875 144.027344 503.265625 C 144.25 507.4375 153.03125 525.15625 147.171875 526.839844 C 140.878906 528.648438 134.363281 508.800781 135.640625 498.027344 Z M 132.496094 342.972656 C 132.039062 437.15625 130.761719 530.515625 129.875 624.273438 C 153.601562 612.363281 179.195312 597.78125 202.726562 583.9375 C 178.824219 504.113281 156.632812 422.566406 132.496094 342.972656 " fill-opacity="1" fill-rule="nonzero"/><path fill="#27b89b" d="M 656.09375 556.695312 C 643.886719 565.335938 651.355469 542.859375 651.378906 534.699219 C 648.246094 535.867188 647.523438 537.34375 644.039062 537.316406 C 626.125 537.175781 634.230469 491.3125 651.378906 498.027344 C 664.929688 503.335938 659.453125 543.347656 656.09375 556.695312 Z M 594.773438 584.464844 C 615.488281 595.964844 638.332031 608.65625 658.714844 620.082031 C 661.542969 621.664062 664.417969 624.246094 667.625 623.746094 C 666.382812 530.355469 666.152344 435.9375 664.476562 342.972656 C 641.378906 423.597656 618.125 504.085938 594.773438 584.464844 " fill-opacity="1" fill-rule="nonzero"/><path fill="#000000" d="M 553.890625 378.59375 C 547.277344 386.878906 562.03125 395.902344 563.324219 403.738281 C 557.75 404.6875 550.4375 411.636719 557.035156 416.835938 C 562.773438 417.503906 564.992188 414.660156 569.09375 413.6875 C 573.5 417.40625 574.003906 428.265625 581.148438 427.832031 C 590.808594 427.25 582.578125 412.5 579.050781 408.449219 C 583.515625 406.40625 592.621094 403.167969 590.578125 396.40625 C 588.125 388.269531 577.730469 397.175781 573.285156 399.023438 C 571.714844 394.132812 568.21875 391.160156 566.46875 386.453125 C 572.347656 383.355469 590.050781 383.316406 593.726562 378.070312 C 597.269531 373.011719 592.15625 368.023438 587.960938 369.164062 C 580.945312 371.074219 555.867188 376.117188 553.890625 378.59375 " fill-opacity="1" fill-rule="nonzero"/><path fill="#000000" d="M 347.910156 471.835938 C 343.4375 476.308594 332.597656 489.597656 333.761719 498.027344 C 334.980469 506.882812 353.628906 503.039062 363.109375 502.742188 C 375.277344 502.359375 392.019531 506.738281 390.363281 496.453125 C 388.878906 487.25 356.1875 493.460938 346.863281 492.265625 C 354.914062 473.003906 379.238281 468.957031 385.125 450.359375 C 387.75 442.050781 385.589844 431.386719 379.359375 425.738281 C 367.066406 414.59375 347.316406 422.734375 340.574219 432.546875 C 337.570312 436.921875 330.757812 452.632812 341.621094 451.410156 C 346.246094 450.886719 345.910156 444.597656 348.957031 439.882812 C 351.152344 436.5 354.304688 433.679688 357.34375 432.546875 C 366.382812 429.183594 377.101562 433.699219 375.164062 445.644531 C 373.460938 456.15625 356.082031 463.671875 347.910156 471.835938 " fill-opacity="1" fill-rule="nonzero"/><path fill="#000000" d="M 434.390625 436.738281 C 436.421875 435.71875 440.320312 435.335938 442.777344 435.167969 C 442.71875 435.171875 442.96875 434.664062 443.300781 434.644531 C 467.3125 433.316406 468.851562 493.210938 446.972656 496.457031 C 443.363281 496.992188 435.292969 496.015625 430.722656 492.265625 C 418.542969 482.273438 421.234375 443.371094 434.390625 436.738281 Z M 423.910156 501.171875 C 434.019531 508.972656 450.773438 509.140625 459.546875 503.265625 C 464.351562 500.054688 469.289062 492.21875 471.082031 485.980469 C 478.878906 458.796875 469.285156 421.539062 441.726562 424.167969 C 436.785156 424.640625 432.996094 425.210938 429.671875 426.785156 C 409.824219 436.199219 404.648438 486.324219 423.910156 501.171875 " fill-opacity="1" fill-rule="nonzero"/><path fill="#27b89b" d="M 430.722656 492.265625 C 435.292969 496.015625 443.363281 496.992188 446.972656 496.457031 C 468.851562 493.210938 467.3125 433.316406 443.300781 434.644531 C 442.96875 434.660156 442.722656 435.171875 442.777344 435.167969 C 440.320312 435.335938 436.421875 435.714844 434.390625 436.734375 C 421.238281 443.367188 418.546875 482.273438 430.722656 492.265625 " fill-opacity="1" fill-rule="nonzero"/><path fill="#000000" d="M 147.171875 526.839844 C 153.03125 525.15625 144.25 507.4375 144.027344 503.265625 C 142.863281 481.425781 159.304688 508.390625 164.46875 507.457031 C 171.6875 506.15625 165.023438 491.683594 163.421875 486.503906 C 161.15625 479.191406 157.730469 457.632812 148.742188 466.074219 C 149.503906 474.917969 153.917969 480.109375 155.035156 488.597656 C 145.300781 481.964844 136.789062 488.363281 135.640625 498.027344 C 134.363281 508.800781 140.878906 528.648438 147.171875 526.839844 " fill-opacity="1" fill-rule="nonzero"/><path fill="#000000" d="M 643.515625 528.933594 C 640.804688 521.242188 644.21875 511.320312 647.183594 505.886719 C 653.566406 512.0625 649.617188 525.019531 643.515625 528.933594 Z M 651.378906 498.027344 C 634.230469 491.3125 626.125 537.175781 644.039062 537.316406 C 647.523438 537.34375 648.246094 535.867188 651.378906 534.699219 C 651.359375 542.859375 643.882812 565.335938 656.097656 556.695312 C 659.457031 543.347656 664.929688 503.335938 651.378906 498.027344 " fill-opacity="1" fill-rule="nonzero"/><path fill="#27b89b" d="M 643.519531 528.933594 C 649.617188 525.015625 653.566406 512.058594 647.1875 505.882812 C 644.21875 511.316406 640.804688 521.242188 643.519531 528.933594 " fill-opacity="1" fill-rule="nonzero"/><path fill="#000000" d="M 163.421875 515.835938 C 160.785156 516.082031 157.738281 519.34375 161.847656 525.265625 C 158.328125 530.324219 156.554688 535.070312 153.460938 542.03125 C 151.476562 546.5 145.046875 554.621094 146.125 559.839844 C 147.839844 568.167969 173.261719 565.203125 164.46875 556.171875 C 161.847656 554.867188 159.414062 556.625 156.082031 556.171875 C 159.539062 548.804688 162.40625 540.847656 166.566406 534.171875 C 168.5 538.9375 175.558594 539.589844 176 534.171875 C 176.242188 531.203125 167 515.507812 163.421875 515.835938 " fill-opacity="1" fill-rule="nonzero"/><path fill="#11e8bd" d="M 417.097656 698.65625 C 403.703125 708.082031 370.246094 702.121094 370.972656 684.511719 C 371.1875 679.3125 373.761719 676.910156 376.214844 672.988281 C 370.488281 669.554688 364.242188 665.167969 364.15625 656.75 C 364 641.5625 382.023438 638.3125 398.75 637.367188 C 421.664062 636.070312 435.78125 657.789062 417.617188 671.414062 C 424.972656 678.476562 426.53125 692.015625 417.097656 698.65625 Z M 576.425781 590.746094 C 458.144531 591.089844 338.488281 590.054688 221.074219 591.269531 C 278.230469 653.753906 339.917969 716.246094 398.226562 779.324219 C 455.597656 718.675781 516.265625 657.578125 572.234375 595.984375 C 573.898438 594.15625 577.675781 592.460938 576.425781 590.746094 " fill-opacity="1" fill-rule="nonzero"/><path fill="#000000" d="M 602.109375 631.605469 C 595.957031 636.195312 563.613281 634.84375 570.140625 646.796875 C 575.269531 647.648438 583.5 645.226562 592.148438 643.128906 C 598.863281 641.503906 609.414062 639.746094 612.070312 636.320312 C 616.371094 630.765625 605.902344 618.867188 600.535156 625.84375 C 599.484375 629.011719 602.730469 630.601562 602.109375 631.605469 " fill-opacity="1" fill-rule="nonzero"/><path fill="#000000" d="M 231.554688 656.222656 C 220.398438 662.976562 205.050781 654.613281 202.207031 644.699219 C 213.070312 638.714844 232.59375 643.996094 231.554688 656.222656 Z M 235.75 643.128906 C 230.765625 636.417969 219.15625 632.125 204.824219 634.746094 C 188.4375 637.742188 194.304688 653.644531 203.777344 660.9375 C 209.664062 665.46875 218.378906 667.453125 224.742188 667.222656 C 240.402344 666.667969 244.273438 654.605469 235.75 643.128906 " fill-opacity="1" fill-rule="nonzero"/><path fill="#000000" d="M 397.703125 667.222656 C 392.417969 663.589844 375.6875 666.210938 375.6875 656.75 C 375.6875 649.417969 389.664062 648.789062 397.179688 648.367188 C 405.285156 647.910156 414.355469 650.40625 415 655.703125 C 416.097656 664.785156 404.398438 664.605469 397.703125 667.222656 Z M 412.378906 687.128906 C 409.777344 695.75 386.375 691.035156 381.980469 686.082031 C 382.199219 680.957031 390.210938 676.695312 397.179688 676.65625 C 403.613281 676.617188 414.925781 678.679688 412.378906 687.128906 Z M 398.75 637.367188 C 382.023438 638.3125 364 641.5625 364.160156 656.75 C 364.242188 665.167969 370.488281 669.554688 376.214844 672.988281 C 373.765625 676.910156 371.1875 679.3125 370.972656 684.511719 C 370.246094 702.121094 403.703125 708.082031 417.097656 698.65625 C 426.53125 692.015625 424.972656 678.476562 417.621094 671.414062 C 435.78125 657.789062 421.664062 636.070312 398.75 637.367188 " fill-opacity="1" fill-rule="nonzero"/><path fill="#27b89b" d="M 202.207031 644.699219 C 205.050781 654.613281 220.398438 662.976562 231.554688 656.222656 C 232.59375 643.996094 213.070312 638.714844 202.207031 644.699219 " fill-opacity="1" fill-rule="nonzero"/><path fill="#11e8bd" d="M 397.179688 648.367188 C 389.667969 648.789062 375.691406 649.417969 375.691406 656.746094 C 375.691406 666.210938 392.421875 663.589844 397.703125 667.222656 C 404.398438 664.605469 416.097656 664.785156 415 655.703125 C 414.355469 650.40625 405.285156 647.910156 397.179688 648.367188 " fill-opacity="1" fill-rule="nonzero"/><path fill="#000000" d="M 529.257812 690.273438 C 531.53125 682.070312 537.453125 677.515625 544.457031 674.035156 C 543.941406 681.902344 537.730469 688.617188 529.257812 690.273438 Z M 573.285156 663.035156 C 560.09375 657.480469 537.507812 665.417969 528.210938 675.082031 C 523.5625 679.914062 515.640625 695.160156 526.636719 698.65625 C 543.394531 698.167969 553.296875 685.648438 552.84375 671.414062 C 556.683594 669.773438 563.121094 669.359375 568.042969 670.367188 C 569.433594 677.117188 581.195312 680.703125 579.570312 669.84375 C 579.242188 667.617188 575.667969 664.039062 573.285156 663.035156 " fill-opacity="1" fill-rule="nonzero"/><path fill="#000000" d="M 261.953125 669.84375 C 255.589844 670.375 259.660156 678.054688 260.382812 679.796875 C 252.59375 680.917969 233.671875 674.261719 233.128906 681.890625 C 232.957031 684.34375 237.277344 688.292969 239.417969 689.75 C 243.335938 692.421875 247.777344 693.382812 253.042969 693.417969 C 254.773438 692.351562 255.039062 689.820312 255.667969 687.65625 C 260.191406 687.324219 263.144531 688.5625 267.722656 688.179688 C 269.921875 693.109375 277.953125 694.851562 278.199219 688.703125 C 278.316406 685.878906 264.878906 669.601562 261.953125 669.84375 " fill-opacity="1" fill-rule="nonzero"/><path fill="#27b89b" d="M 529.257812 690.273438 C 537.734375 688.617188 543.941406 681.902344 544.457031 674.035156 C 537.457031 677.515625 531.53125 682.066406 529.257812 690.273438 " fill-opacity="1" fill-rule="nonzero"/><path fill="#11e8bd" d="M 397.175781 676.65625 C 390.210938 676.695312 382.195312 680.957031 381.976562 686.082031 C 386.375 691.035156 409.777344 695.75 412.375 687.132812 C 414.925781 678.679688 403.609375 676.617188 397.175781 676.65625 " fill-opacity="1" fill-rule="nonzero"/><path fill="#27b89b" d="M 600.535156 625.84375 C 605.898438 618.871094 616.371094 630.765625 612.066406 636.320312 C 609.414062 639.746094 598.863281 641.503906 592.148438 643.128906 C 583.496094 645.226562 575.269531 647.648438 570.140625 646.796875 C 563.617188 634.84375 595.960938 636.195312 602.109375 631.605469 C 602.734375 630.601562 599.484375 629.011719 600.535156 625.84375 Z M 568.042969 670.367188 C 563.113281 669.359375 556.679688 669.773438 552.84375 671.414062 C 553.292969 685.652344 543.390625 698.167969 526.636719 698.65625 C 515.640625 695.160156 523.558594 679.914062 528.207031 675.082031 C 537.503906 665.421875 560.09375 657.480469 573.28125 663.035156 C 575.667969 664.039062 579.242188 667.617188 579.570312 669.84375 C 581.191406 680.703125 569.433594 677.117188 568.042969 670.367188 Z M 420.761719 769.371094 C 501.699219 723.5 583.65625 678.640625 664.476562 632.652344 C 638.953125 619.226562 614.769531 604.460938 589.007812 591.269531 C 533.011719 650.375 474.921875 710.179688 420.761719 769.371094 " fill-opacity="1" fill-rule="nonzero"/><path fill="#27b89b" d="M 267.722656 688.179688 C 263.144531 688.5625 260.191406 687.324219 255.667969 687.65625 C 255.039062 689.820312 254.773438 692.351562 253.042969 693.417969 C 247.777344 693.382812 243.335938 692.421875 239.417969 689.75 C 237.277344 688.292969 232.957031 684.34375 233.128906 681.890625 C 233.671875 674.261719 252.59375 680.917969 260.382812 679.796875 C 259.660156 678.054688 255.589844 670.375 261.953125 669.84375 C 264.878906 669.601562 278.316406 685.878906 278.199219 688.703125 C 277.953125 694.851562 269.921875 693.109375 267.722656 688.179688 Z M 203.777344 660.9375 C 194.304688 653.644531 188.4375 637.742188 204.824219 634.746094 C 219.15625 632.125 230.765625 636.417969 235.75 643.128906 C 244.273438 654.605469 240.402344 666.667969 224.742188 667.222656 C 218.378906 667.453125 209.664062 665.46875 203.777344 660.9375 Z M 218.976562 602.269531 C 215.371094 598.59375 212.320312 593.867188 206.921875 592.316406 C 181.574219 605.222656 157.386719 619.289062 133.023438 633.175781 C 214.65625 677.824219 296.324219 725.242188 377.261719 768.847656 C 362.933594 754.183594 348.992188 738.996094 334.808594 723.800781 C 296.746094 683.015625 257.636719 641.691406 218.976562 602.269531 " fill-opacity="1" fill-rule="nonzero"/><g fill="#000000" fill-opacity="1"><g transform="translate(93.009843, 277.036242)"><g><path d="M 18.101562 24.109375 C 19.757812 27.03125 24.414062 28.433594 29.132812 29.617188 C 34.832031 26.378906 43.871094 21.246094 48.195312 14.933594 L 53.894531 11.695312 C 65.855469 4.90625 68.300781 -4.386719 72.703125 -10.5625 C 74.8125 -27.574219 78.128906 -48.949219 68.023438 -66.75 C 64.371094 -80.304688 56.484375 -89.988281 49.707031 -99.011719 C 41.625 -109.683594 34.480469 -114.824219 25.710938 -120.875 C 19.613281 -125.136719 13.082031 -129.519531 5.523438 -128.90625 C 0.804688 -130.089844 -6.632812 -129.914062 -11.351562 -131.097656 C -12.917969 -130.941406 -13.914062 -129.457031 -13.914062 -129.457031 C -21.777344 -126.464844 -23.308594 -124.308594 -29.011719 -121.070312 C -34.992188 -117.675781 -40.972656 -114.28125 -45.152344 -108.046875 L -46.335938 -103.328125 C -47.738281 -98.671875 -50.660156 -97.015625 -49.082031 -94.234375 C -43.949219 -85.195312 -41.363281 -94.566406 -35.664062 -97.804688 L -28.875 -85.84375 C -20.839844 -78.820312 -14.050781 -66.863281 -7.421875 -55.179688 C -2.367188 -46.28125 7.261719 -36.117188 15.628906 -21.375 L 34.183594 11.304688 C 31.261719 12.960938 32.839844 15.742188 29.78125 17.480469 Z M -18.257812 -115.40625 C -12.277344 -118.800781 -9.21875 -120.539062 -4.71875 -119.414062 C 9.171875 -115.351562 17.539062 -100.609375 28.96875 -87.605469 L 34.019531 -78.707031 C 41.992188 -71.464844 44.046875 -61.042969 47.441406 -55.066406 C 54.152344 -43.242188 60.941406 -31.285156 59.933594 -19.128906 C 59.933594 -19.128906 61.59375 -16.207031 58.808594 -14.628906 C 58.808594 -14.628906 55.75 -12.894531 57.488281 -9.832031 C 54.566406 -8.175781 53.164062 -3.519531 50.246094 -1.859375 C 45.527344 -3.042969 46.851562 -7.839844 43.457031 -13.820312 C 40.21875 -19.523438 33.765625 -23.765625 30.371094 -29.746094 L 13.636719 -59.226562 C 8.582031 -68.125 4.46875 -72.777344 0.761719 -79.316406 C -2.632812 -85.296875 -6.722656 -90.878906 -11.699219 -99.640625 C -13.988281 -103.675781 -19.460938 -111.046875 -18.257812 -115.40625 Z M -18.257812 -115.40625 "/></g></g></g><g fill="#000000" fill-opacity="1"><g transform="translate(178.81288, 228.327947)"><g><path d="M -23.945312 -110.523438 C -18.382812 -113.683594 -18.699219 -121.042969 -23.277344 -122.304688 C -30.417969 -121.929688 -40.242188 -112.671875 -46.082031 -109.359375 C -51.644531 -106.199219 -56.144531 -107.324219 -54.566406 -104.542969 L -51.328125 -98.839844 C -49.671875 -95.921875 -46.75 -97.578125 -44.109375 -99.078125 C -34.398438 -81.972656 -24.6875 -64.867188 -16.558594 -50.546875 L -1.953125 -24.816406 C -0.296875 -21.898438 2.253906 -18.378906 2.253906 -18.378906 C 7.070312 -9.898438 10.992188 -2.011719 15.96875 6.75 C 17.625 9.667969 23.703125 13.574219 22.441406 18.152344 C 21.457031 22.574219 16.878906 21.308594 18.535156 24.230469 C 17.117188 28.53125 21.695312 29.792969 21.695312 29.792969 C 31.835938 27.898438 41.578125 18.503906 49.078125 18.109375 C 50.339844 13.53125 52.984375 12.03125 51.324219 9.109375 C 47.183594 7.96875 44.261719 9.625 39.683594 8.363281 C 21.765625 -23.203125 6.027344 -55.460938 -9.339844 -84.796875 C -13.957031 -93.578125 -22.050781 -100.382812 -23.945312 -110.523438 Z M -23.945312 -110.523438 "/></g></g></g><g fill="#000000" fill-opacity="1"><g transform="translate(217.751133, 206.223649)"><g><path d="M 14.523438 -134.753906 C 5.425781 -137.496094 -0.414062 -134.179688 -10.753906 -131.988281 C -25.078125 -123.855469 -31.644531 -108.542969 -32.808594 -96.667969 C -34.332031 -91.574219 -32.273438 -89.246094 -33.398438 -84.746094 C -30.25 -68.515625 -22.957031 -52.425781 -17.53125 -36.386719 C -7.742188 -19.140625 7.96875 -5.074219 19.019531 7.589844 C 29.554688 13.195312 37.273438 12.859375 46.269531 15.105469 C 62.25 9.894531 91.574219 0.972656 89.28125 -16.664062 L 77.757812 -36.96875 C 74.976562 -35.390625 73.238281 -38.449219 67.257812 -35.054688 C 67.792969 -27.636719 75.546875 -20.453125 76.003906 -13.171875 C 71.898438 -6.796875 67.777344 -0.78125 60.355469 -0.246094 C 45.417969 0.328125 28.269531 -16.601562 15.34375 -32.246094 L 5.554688 -49.492188 C -2.65625 -63.953125 -7.628906 -72.714844 -11.121094 -85.992188 C -9.917969 -90.355469 -11.65625 -93.414062 -11.65625 -93.414062 C -10.3125 -97.851562 -12.507812 -108.191406 -11.105469 -112.847656 C -6.980469 -118.867188 1.640625 -123.761719 11.980469 -125.953125 C 16.417969 -124.613281 20.191406 -111.492188 25.890625 -114.726562 C 28.949219 -116.464844 24.136719 -124.949219 20.742188 -130.925781 C 19.160156 -133.707031 16.101562 -131.972656 14.523438 -134.753906 Z M 14.523438 -134.753906 "/></g></g></g><g fill="#000000" fill-opacity="1"><g transform="translate(294.93217, 162.409854)"><g><path d="M 16.238281 -117.15625 C 27.640625 -123.628906 15.546875 -131.65625 12.308594 -137.355469 C 10.652344 -140.277344 6.152344 -141.402344 6.152344 -141.402344 L -22.214844 -125.296875 C -32.039062 -116.042969 -43.304688 -109.648438 -53.050781 -100.253906 C -53.050781 -100.253906 -49.8125 -94.550781 -49.8125 -94.550781 L -38.410156 -101.027344 C -33.675781 -92.683594 -28.78125 -84.058594 -23.964844 -75.578125 L -17.570312 -64.3125 C -11.097656 -52.910156 -6.28125 -44.425781 -1.386719 -35.804688 L 1.851562 -30.101562 C 11.640625 -12.859375 22.453125 -0.609375 29.164062 18.011719 C 26.382812 19.589844 20.683594 22.828125 17.761719 24.484375 L 21 30.1875 C 39.621094 23.476562 53.945312 15.347656 67.992188 7.371094 L 82.316406 -0.757812 C 83.4375 -5.257812 84.78125 -9.695312 83.121094 -12.617188 C 79.886719 -18.320312 75.148438 -26.664062 69.445312 -23.425781 C 65.324219 -17.40625 75.839844 -12.160156 71.71875 -6.144531 C 63.097656 -1.25 57.535156 1.910156 47.472656 3.941406 C 44.3125 -1.621094 37.242188 -12.132812 32.347656 -20.753906 C 27.613281 -29.097656 18.816406 -39.734375 16.84375 -50.015625 C 19.625 -51.59375 28.246094 -56.488281 30.886719 -57.988281 L 32.546875 -55.066406 C 34.125 -52.285156 41.484375 -52.601562 41.484375 -52.601562 C 47.183594 -55.839844 31.695312 -69.847656 31.457031 -77.066406 C 26.957031 -78.191406 26.957031 -78.191406 24.175781 -76.609375 C 21.257812 -74.953125 24.492188 -69.25 25.992188 -66.609375 C 20.429688 -63.453125 11.949219 -58.636719 7.527344 -59.621094 C 7.210938 -66.980469 1.054688 -71.023438 -3.839844 -79.644531 C -7 -85.207031 -8.949219 -89.617188 -13.449219 -97.542969 C -17.082031 -103.941406 -19.945312 -108.015625 -18.523438 -112.316406 C -14.480469 -118.472656 -6.136719 -123.207031 -0.433594 -126.445312 C 3.273438 -126.710938 3.273438 -126.710938 6.925781 -126.761719 C 11.34375 -125.777344 11.660156 -118.417969 16.238281 -117.15625 Z M 16.238281 -117.15625 "/></g></g></g><g fill="#000000" fill-opacity="1"><g transform="translate(367.154043, 121.411256)"><g/></g></g><g fill="#000000" fill-opacity="1"><g transform="translate(412.451311, 111.623556)"><g><path d="M 85.472656 -7.851562 C 87.207031 -10.914062 84.144531 -12.648438 85.796875 -15.570312 L 90.59375 -16.898438 C 94.953125 -18.105469 102.179688 -20.8125 106.132812 -23.90625 C 114.042969 -30.085938 117.765625 -41.210938 119.601562 -47.703125 C 125.191406 -67.324219 99.980469 -82.511719 80.15625 -89.6875 C 77.371094 -91.261719 75.453125 -90.144531 72.53125 -91.796875 C 63.484375 -96.917969 59.507812 -98.984375 54.546875 -90.214844 C 52.8125 -87.152344 57.113281 -83.066406 62.960938 -79.757812 C 54.453125 -64.726562 50.988281 -54.378906 42.984375 -42.1875 C 40.34375 -38.171875 39.332031 -38.007812 37.601562 -34.945312 C 37.351562 -27.367188 30.828125 -22.976562 27.519531 -17.132812 L -1.230469 33.664062 C -4.289062 31.929688 -7.074219 30.355469 -11.710938 31.40625 C -12.113281 39.261719 -9.332031 40.839844 -3.207031 44.304688 C 4.230469 44.472656 15.636719 53.863281 21.480469 57.171875 C 24.402344 58.828125 25.246094 56.363281 26.976562 53.300781 C 28.554688 50.519531 22.570312 47.132812 24.222656 44.210938 C 24.90625 36.511719 28.214844 30.664062 31.679688 24.542969 C 38.371094 12.714844 45.472656 -6.972656 57.039062 -20.269531 C 58.613281 -23.054688 61.398438 -21.476562 64.460938 -19.746094 C 65.804688 -15.308594 68.867188 -13.574219 67.136719 -10.511719 C 68.464844 -5.71875 68.074219 -3.734375 68.492188 0.726562 C 69.699219 14.824219 59.609375 25.835938 55.039062 38.132812 C 47.863281 57.957031 36.773438 57.742188 39.589844 67.054688 C 47.527344 72.832031 58.59375 81.851562 63.632812 72.945312 C 65.289062 70.023438 62.503906 68.445312 59.441406 66.714844 C 68.273438 43.96875 88.796875 13.871094 85.472656 -7.851562 Z M 84.421875 -75.144531 C 87.203125 -73.570312 96.128906 -68.886719 99.191406 -67.15625 C 100.597656 -62.5 102.277344 -58.976562 99.917969 -54.800781 C 96.609375 -48.957031 98.035156 -48.882812 93.144531 -42.832031 C 90.164062 -39.191406 85.398438 -35.640625 83.664062 -32.578125 C 78.871094 -31.25 62.597656 -33.660156 64.742188 -37.777344 C 72.238281 -52.644531 77.648438 -63.179688 84.421875 -75.144531 Z M 84.421875 -75.144531 "/></g></g></g><g fill="#000000" fill-opacity="1"><g transform="translate(495.117779, 158.406935)"><g><path d="M 55.644531 59.789062 C 67.179688 52.71875 77.359375 44.148438 88.238281 31.746094 C 97.476562 21.910156 102.886719 11.375 107.691406 2.882812 C 111.316406 -3.515625 112.96875 -6.441406 115.640625 -12.460938 C 122.519531 -27.859375 123.304688 -44.503906 117.90625 -55.09375 C 117.082031 -66.953125 112.953125 -72.964844 101.816406 -79.265625 C 83.429688 -93.527344 68.039062 -79.640625 53.167969 -73.171875 C 48.671875 -72.042969 45.425781 -65.980469 40.644531 -60.78125 C 38.992188 -57.859375 35.871094 -54.296875 32.972656 -50.792969 C 27.386719 -43.847656 26.511719 -39.382812 23.285156 -33.675781 C 16.828125 -22.265625 10.367188 -10.851562 6.851562 1.855469 C 4.890625 12.136719 4.328125 20.273438 4.136719 26.777344 C 3.632812 43.582031 17.84375 65.222656 43.046875 63.867188 C 46.417969 63.753906 51.730469 62.164062 55.644531 59.789062 Z M 44.363281 50.828125 C 39.28125 54.9375 23.808594 49.488281 21.9375 42.730469 C 21.089844 39.679688 24.039062 38.042969 21.253906 36.464844 C 19.988281 31.890625 23.214844 26.183594 23.660156 18.902344 C 30.269531 0.410156 40.402344 -23.988281 56.101562 -45.238281 C 59.332031 -50.941406 62.558594 -56.648438 68.710938 -60.699219 C 76.300781 -67.613281 82.371094 -71.527344 91.308594 -74.003906 C 97.011719 -70.777344 97.117188 -69.984375 102.542969 -66.910156 C 106.675781 -60.898438 104.691406 -51.546875 104.246094 -44.265625 C 103.9375 -36.90625 100.707031 -31.203125 100.261719 -23.921875 C 97.035156 -18.214844 94.9375 -12.234375 91.707031 -6.53125 C 88.554688 -0.964844 85.769531 1.6875 82.542969 7.390625 C 77.738281 15.882812 72.855469 24.511719 65.265625 31.425781 C 59.875 37.378906 49.738281 46.523438 44.363281 50.828125 Z M 44.363281 50.828125 "/></g></g></g><g fill="#000000" fill-opacity="1"><g transform="translate(580.567674, 206.765536)"><g><path d="M 96.789062 -77.519531 C 98.675781 -80.859375 99.390625 -80.820312 96.765625 -82.675781 C 88.351562 -88.90625 75.261719 -93.375 66.769531 -98.179688 C 66.769531 -98.179688 63.710938 -99.914062 63.710938 -99.914062 L 60.402344 -94.066406 C 61.886719 -89.550781 64.671875 -87.976562 63.097656 -85.191406 C 61.058594 -74.773438 54.597656 -63.359375 49.558594 -54.453125 C 44.753906 -45.964844 39.871094 -37.335938 34.988281 -28.707031 L 33.253906 -25.644531 C 25.144531 -11.3125 13.722656 8.867188 2.609375 21.6875 C -0.699219 27.53125 -2.273438 30.316406 -6.710938 31.664062 C -9.773438 29.929688 -12.554688 28.355469 -14.132812 31.140625 C -15.863281 34.199219 -13.082031 35.777344 -11.59375 40.292969 C 4.316406 45.621094 19.996094 58.171875 38.96875 65.230469 C 43.484375 63.746094 43.929688 56.464844 45.503906 53.679688 C 50.386719 45.054688 59.789062 34.9375 57.449219 26.082031 C 57.449219 26.082031 55.964844 21.566406 51.605469 22.773438 L 45.066406 34.324219 C 41.757812 40.167969 38.609375 45.738281 35.300781 51.582031 L 32.238281 49.847656 C 28.683594 48.019531 26.535156 46.621094 26.535156 46.621094 C 23.75 45.042969 23.8125 45.261719 20.96875 43.46875 C 17.84375 41.519531 17.90625 41.738281 19.480469 38.953125 C 39.617188 -3.121094 65.074219 -34.464844 86.335938 -72.039062 C 87.914062 -74.824219 90.695312 -73.25 96.789062 -77.519531 Z M 96.789062 -77.519531 "/></g></g></g><g fill="#000000" fill-opacity="1"><g transform="translate(642.219619, 241.656179)"><g><path d="M 96.789062 -77.519531 C 98.675781 -80.859375 99.390625 -80.820312 96.765625 -82.675781 C 88.351562 -88.90625 75.261719 -93.375 66.769531 -98.179688 C 66.769531 -98.179688 63.710938 -99.914062 63.710938 -99.914062 L 60.402344 -94.066406 C 61.886719 -89.550781 64.671875 -87.976562 63.097656 -85.191406 C 61.058594 -74.773438 54.597656 -63.359375 49.558594 -54.453125 C 44.753906 -45.964844 39.871094 -37.335938 34.988281 -28.707031 L 33.253906 -25.644531 C 25.144531 -11.3125 13.722656 8.867188 2.609375 21.6875 C -0.699219 27.53125 -2.273438 30.316406 -6.710938 31.664062 C -9.773438 29.929688 -12.554688 28.355469 -14.132812 31.140625 C -15.863281 34.199219 -13.082031 35.777344 -11.59375 40.292969 C 4.316406 45.621094 19.996094 58.171875 38.96875 65.230469 C 43.484375 63.746094 43.929688 56.464844 45.503906 53.679688 C 50.386719 45.054688 59.789062 34.9375 57.449219 26.082031 C 57.449219 26.082031 55.964844 21.566406 51.605469 22.773438 L 45.066406 34.324219 C 41.757812 40.167969 38.609375 45.738281 35.300781 51.582031 L 32.238281 49.847656 C 28.683594 48.019531 26.535156 46.621094 26.535156 46.621094 C 23.75 45.042969 23.8125 45.261719 20.96875 43.46875 C 17.84375 41.519531 17.90625 41.738281 19.480469 38.953125 C 39.617188 -3.121094 65.074219 -34.464844 86.335938 -72.039062 C 87.914062 -74.824219 90.695312 -73.25 96.789062 -77.519531 Z M 96.789062 -77.519531 "/></g></g></g></svg>