<svg xmlns="http://www.w3.org/2000/svg" xmlns:xlink="http://www.w3.org/1999/xlink" width="1080" zoomAndPan="magnify" viewBox="0 0 810 809.999993" height="1080" preserveAspectRatio="xMidYMid meet" version="1.0"><defs><g/><clipPath id="686cbf2d43"><path d="M 194.71875 213.679688 L 575.304688 213.679688 L 575.304688 647.929688 L 194.71875 647.929688 Z M 194.71875 213.679688 " clip-rule="nonzero"/></clipPath></defs><g clip-path="url(#686cbf2d43)"><path fill="#000000" d="M 563.453125 531.558594 C 549.488281 523.726562 533.835938 515.019531 519.644531 507.136719 C 535.644531 452.023438 551.578125 396.832031 567.402344 341.550781 C 568.550781 405.292969 568.710938 470.035156 569.5625 534.070312 C 567.363281 534.414062 565.394531 532.644531 563.453125 531.558594 Z M 400.410156 633.921875 C 437.519531 593.335938 477.324219 552.332031 515.691406 511.800781 C 533.34375 520.847656 549.914062 530.972656 567.402344 540.175781 C 512.023438 571.710938 455.867188 602.46875 400.410156 633.921875 Z M 384.964844 640.75 C 345.015625 597.496094 302.742188 554.648438 263.582031 511.800781 C 344.03125 510.96875 426.023438 511.679688 507.070312 511.441406 C 507.925781 512.617188 505.339844 513.78125 504.199219 515.035156 C 465.851562 557.269531 424.277344 599.160156 384.964844 640.75 Z M 203.246094 540.535156 C 219.941406 531.011719 236.515625 521.371094 253.882812 512.519531 C 257.582031 513.585938 259.671875 516.824219 262.144531 519.34375 C 288.632812 546.375 315.433594 574.710938 341.511719 602.675781 C 351.230469 613.097656 360.78125 623.511719 370.601562 633.566406 C 315.144531 603.664062 259.183594 571.152344 203.246094 540.535156 Z M 202.886719 341.550781 C 219.425781 396.125 234.632812 452.039062 251.011719 506.773438 C 234.886719 516.269531 217.347656 526.265625 201.09375 534.433594 C 201.699219 470.144531 202.574219 406.128906 202.886719 341.550781 Z M 379.222656 275.101562 C 339.242188 350.175781 296.152344 425.253906 255.320312 500.667969 C 237.808594 441.914062 221.039062 382.425781 203.964844 323.230469 C 262.667969 307.472656 320.894531 291.238281 379.222656 275.101562 Z M 382.09375 220.867188 C 382.933594 235.949219 382.210938 252.59375 382.453125 268.277344 C 328.046875 283.300781 273.71875 298.414062 219.046875 313.175781 C 273.253906 282.261719 327.648438 251.542969 382.09375 220.867188 Z M 511.382812 505.695312 C 427.535156 505.886719 342.890625 505.285156 259.628906 506.054688 C 259.339844 503.457031 261.347656 501.308594 262.503906 499.234375 C 303.148438 426.015625 344.480469 350.5 385.324219 277.253906 C 427.347656 353.164062 470.292969 430.046875 511.382812 505.695312 Z M 566.6875 323.589844 C 549.667969 382.59375 532.550781 441.503906 515.691406 500.667969 C 473.992188 425.640625 432.339844 350.558594 391.070312 275.101562 C 449.578125 291.296875 508.398438 307.175781 566.6875 323.589844 Z M 388.199219 221.222656 C 388.519531 221 388.839844 220.789062 388.917969 221.222656 C 443.511719 251.390625 497.027344 282.628906 551.601562 312.816406 C 497.496094 299.042969 442.511719 283.035156 388.199219 268.277344 C 388.199219 252.59375 388.199219 236.910156 388.199219 221.222656 Z M 573.511719 319.636719 C 559.050781 309.734375 542.863281 301.78125 527.183594 292.699219 C 485.070312 268.320312 441.160156 243.527344 398.253906 219.425781 C 394.21875 217.160156 388.90625 213.578125 385.324219 213.679688 C 379.996094 213.839844 374.292969 218.476562 369.523438 221.222656 C 315.632812 252.285156 262.367188 281.960938 207.914062 312.457031 C 204.519531 314.359375 197.65625 318.082031 197.140625 320 C 196.363281 322.886719 197.5 328.75 197.5 333.648438 C 197.5 347.460938 197.335938 362.433594 197.140625 375.3125 C 196.417969 422.796875 195.703125 466.367188 195.703125 513.957031 C 195.703125 522.125 193.484375 535.261719 195.703125 541.253906 C 196.730469 544.019531 202.734375 546.699219 206.476562 548.796875 C 262.605469 580.277344 317.160156 610.652344 372.753906 641.824219 C 376.570312 643.96875 381.90625 648.023438 385.324219 647.933594 C 388.503906 647.851562 393.523438 644.058594 397.535156 641.824219 C 453.574219 610.621094 508.242188 579.746094 563.8125 548.796875 C 568.191406 546.359375 574.144531 544.097656 575.304688 540.535156 C 574.808594 467.039062 573.269531 392.679688 573.511719 319.636719 " fill-opacity="1" fill-rule="nonzero"/></g><path fill="#27b89b" d="M 360.90625 256.0625 C 360.601562 258.214844 359.574219 258.914062 357.3125 260.375 C 367.9375 271.578125 327.050781 282.753906 331.097656 266.839844 C 331.785156 264.128906 334.824219 263.105469 338.28125 261.808594 C 332.175781 250.902344 362.777344 242.917969 360.90625 256.0625 Z M 318.167969 269.710938 C 313.558594 273.949219 310.441406 276.578125 304.882812 280.847656 C 302.578125 282.613281 298.019531 284.480469 297.699219 280.488281 C 297.476562 277.710938 306.6875 272.21875 308.472656 270.789062 C 312.78125 267.351562 315.753906 261.820312 319.964844 261.09375 C 321.613281 260.808594 323.164062 260.984375 323.554688 262.890625 C 324.101562 265.542969 319.914062 268.109375 318.167969 269.710938 Z M 382.09375 220.863281 C 327.648438 251.542969 273.253906 282.261719 219.046875 313.175781 C 273.71875 298.414062 328.046875 283.300781 382.453125 268.277344 C 382.210938 252.589844 382.933594 235.949219 382.09375 220.863281 " fill-opacity="1" fill-rule="nonzero"/><path fill="#27b89b" d="M 453.917969 273.660156 C 453.75 274.1875 454.191406 276.890625 452.84375 277.253906 C 447.097656 278.445312 447.371094 273.136719 443.863281 271.507812 C 441.320312 270.324219 435.851562 269.59375 431.652344 268.632812 C 426.933594 267.554688 419.035156 267.726562 419.085938 262.890625 C 419.113281 260.238281 422.320312 258.820312 424.832031 256.78125 C 426.710938 255.253906 429.105469 251.34375 430.9375 251.035156 C 433.097656 250.667969 434.34375 252.273438 434.527344 252.832031 C 436.089844 257.609375 429.15625 258.929688 427.703125 261.808594 C 430.9375 262.882812 434.707031 263.425781 438.117188 264.324219 C 437.683594 261.910156 438.773438 259.472656 440.632812 259.296875 C 443.976562 258.972656 445.324219 265.796875 447.816406 266.839844 C 452.164062 267.984375 461.332031 267.332031 461.824219 271.507812 C 462.261719 275.253906 457.628906 275.039062 453.917969 273.660156 Z M 388.917969 221.222656 C 388.84375 220.789062 388.519531 221.003906 388.199219 221.222656 C 388.199219 236.90625 388.199219 252.589844 388.199219 268.273438 C 442.511719 283.035156 497.496094 299.042969 551.605469 312.8125 C 497.027344 282.632812 443.511719 251.390625 388.917969 221.222656 " fill-opacity="1" fill-rule="nonzero"/><path fill="#000000" d="M 344.027344 258.21875 C 346.691406 256.429688 351.199219 254.652344 354.800781 254.988281 C 352.359375 257.21875 349.007812 258.53125 344.027344 258.21875 Z M 337.203125 268.996094 C 341.207031 266.261719 347.207031 264.125 352.644531 263.964844 C 349.703125 267.851562 343.925781 268.894531 337.203125 268.996094 Z M 338.28125 261.8125 C 334.824219 263.105469 331.785156 264.128906 331.097656 266.839844 C 327.050781 282.753906 367.933594 271.578125 357.3125 260.375 C 359.574219 258.914062 360.597656 258.214844 360.90625 256.066406 C 362.777344 242.921875 332.171875 250.902344 338.28125 261.8125 " fill-opacity="1" fill-rule="nonzero"/><path fill="#000000" d="M 461.820312 271.507812 C 461.328125 267.335938 452.164062 267.984375 447.816406 266.839844 C 445.324219 265.796875 443.976562 258.976562 440.628906 259.296875 C 438.773438 259.472656 437.683594 261.910156 438.117188 264.324219 C 434.707031 263.425781 430.9375 262.886719 427.703125 261.8125 C 429.15625 258.929688 436.089844 257.609375 434.527344 252.832031 C 434.34375 252.273438 433.09375 250.671875 430.933594 251.035156 C 429.101562 251.34375 426.710938 255.253906 424.832031 256.785156 C 422.320312 258.824219 419.113281 260.242188 419.085938 262.890625 C 419.035156 267.730469 426.933594 267.554688 431.652344 268.636719 C 435.847656 269.59375 441.316406 270.324219 443.863281 271.507812 C 447.367188 273.140625 447.09375 278.445312 452.84375 277.257812 C 454.191406 276.890625 453.75 274.1875 453.917969 273.664062 C 457.628906 275.039062 462.261719 275.253906 461.820312 271.507812 " fill-opacity="1" fill-rule="nonzero"/><path fill="#27b89b" d="M 344.027344 258.21875 C 349.007812 258.53125 352.359375 257.214844 354.800781 254.988281 C 351.199219 254.652344 346.691406 256.429688 344.027344 258.21875 " fill-opacity="1" fill-rule="nonzero"/><path fill="#000000" d="M 319.964844 261.09375 C 315.753906 261.820312 312.78125 267.351562 308.472656 270.792969 C 306.683594 272.21875 297.476562 277.714844 297.699219 280.488281 C 298.019531 284.484375 302.578125 282.613281 304.882812 280.847656 C 310.441406 276.582031 313.558594 273.953125 318.167969 269.714844 C 319.914062 268.109375 324.101562 265.542969 323.554688 262.890625 C 323.164062 260.984375 321.613281 260.808594 319.964844 261.09375 " fill-opacity="1" fill-rule="nonzero"/><path fill="#27b89b" d="M 352.644531 263.964844 C 347.207031 264.125 341.207031 266.261719 337.203125 268.996094 C 343.925781 268.894531 349.703125 267.851562 352.644531 263.964844 " fill-opacity="1" fill-rule="nonzero"/><path fill="#11e8bd" d="M 249.933594 360.226562 C 250.671875 353.75 257.28125 344.511719 261.785156 341.910156 C 263.535156 340.898438 266.878906 339.855469 270.042969 340.832031 C 280.476562 344.050781 278.042969 358.980469 280.101562 371.363281 C 282.867188 367.203125 285.066406 363.226562 287.644531 359.507812 C 289.191406 357.269531 293.289062 349.648438 296.980469 349.8125 C 304.652344 350.152344 297.472656 358.597656 295.542969 361.304688 C 293.238281 364.546875 292.195312 366.03125 290.15625 369.207031 C 287.359375 373.558594 284.070312 384.988281 279.382812 385.011719 C 273.453125 385.039062 271.949219 372.046875 271.480469 364.539062 C 271.050781 357.636719 271.894531 350.574219 267.171875 348.011719 C 263.03125 351.316406 257.4375 356.144531 257.476562 362.382812 C 257.496094 365.714844 261.769531 370.761719 257.117188 372.082031 C 252.023438 373.523438 249.226562 366.445312 249.933594 360.226562 Z M 379.222656 275.101562 C 320.894531 291.238281 262.671875 307.476562 203.964844 323.230469 C 221.039062 382.425781 237.808594 441.914062 255.320312 500.667969 C 296.152344 425.253906 339.242188 350.171875 379.222656 275.101562 " fill-opacity="1" fill-rule="nonzero"/><path fill="#11e8bd" d="M 467.925781 337.238281 C 469.730469 337.9375 469.210938 339.335938 471.15625 341.550781 C 477.203125 340.054688 482.007812 337.316406 487.320312 335.082031 C 485.546875 331.589844 479.546875 332.324219 480.496094 326.105469 C 483.972656 321.492188 488.472656 326.386719 492.707031 328.976562 C 496.683594 331.410156 501.035156 332.621094 498.453125 337.957031 C 490.839844 341.601562 483.5625 345.578125 475.109375 348.375 C 477.21875 350.777344 480.699219 360.347656 473.671875 359.152344 C 471.054688 358.703125 470.382812 355.089844 467.570312 350.171875 C 465.207031 346.046875 462.015625 343.058594 462.539062 340.113281 C 462.949219 337.796875 465.457031 336.285156 467.925781 337.238281 Z M 518.921875 365.613281 C 516.40625 369.210938 504.273438 369.238281 500.246094 371.363281 C 501.445312 374.59375 503.839844 376.628906 504.917969 379.984375 C 507.964844 378.714844 515.085938 372.605469 516.769531 378.1875 C 518.164062 382.828125 511.925781 385.042969 508.867188 386.449219 C 511.285156 389.222656 516.921875 399.335938 510.304688 399.738281 C 505.410156 400.035156 505.066406 392.589844 502.042969 390.039062 C 499.234375 390.703125 497.714844 392.652344 493.785156 392.195312 C 489.261719 388.632812 494.269531 383.863281 498.09375 383.214844 C 497.207031 377.84375 487.09375 371.65625 491.628906 365.972656 C 492.984375 364.277344 510.164062 360.816406 514.972656 359.507812 C 517.847656 358.726562 521.347656 362.148438 518.921875 365.613281 Z M 515.691406 500.667969 C 532.550781 441.503906 549.667969 382.59375 566.6875 323.589844 C 508.394531 307.179688 449.578125 291.296875 391.070312 275.101562 C 432.335938 350.558594 473.996094 425.640625 515.691406 500.667969 " fill-opacity="1" fill-rule="nonzero"/><path fill="#27b89b" d="M 356.953125 402.96875 C 354.871094 403.746094 352.710938 405.675781 351.207031 408 C 349.117188 411.230469 349.347656 415.542969 346.179688 415.902344 C 338.738281 416.742188 343.402344 405.96875 345.460938 402.96875 C 350.082031 396.238281 363.613281 390.65625 372.039062 398.300781 C 376.308594 402.171875 377.789062 409.484375 375.988281 415.179688 C 371.957031 427.933594 355.289062 430.707031 349.773438 443.914062 C 356.164062 444.734375 378.5625 440.476562 379.578125 446.789062 C 380.714844 453.839844 369.242188 450.839844 360.90625 451.101562 C 354.40625 451.304688 341.628906 453.941406 340.792969 447.867188 C 339.996094 442.085938 347.425781 432.976562 350.492188 429.910156 C 356.089844 424.3125 367.996094 419.15625 369.164062 411.949219 C 370.492188 403.757812 363.148438 400.664062 356.953125 402.96875 Z M 406.511719 399.015625 C 408.792969 397.9375 411.386719 397.546875 414.773438 397.222656 C 433.65625 395.417969 440.230469 420.964844 434.886719 439.605469 C 433.660156 443.882812 430.277344 449.253906 426.984375 451.457031 C 420.972656 455.488281 409.492188 455.371094 402.566406 450.023438 C 389.367188 439.839844 392.914062 405.472656 406.511719 399.015625 Z M 259.628906 506.054688 C 342.894531 505.285156 427.535156 505.886719 511.382812 505.695312 C 470.292969 430.046875 427.347656 353.164062 385.324219 277.253906 C 344.480469 350.5 303.148438 426.015625 262.503906 499.230469 C 261.347656 501.308594 259.339844 503.457031 259.628906 506.054688 " fill-opacity="1" fill-rule="nonzero"/><path fill="#000000" d="M 467.566406 350.171875 C 470.378906 355.089844 471.054688 358.707031 473.671875 359.148438 C 480.699219 360.347656 477.21875 350.777344 475.109375 348.375 C 483.566406 345.578125 490.839844 341.601562 498.453125 337.960938 C 501.035156 332.621094 496.679688 331.410156 492.707031 328.980469 C 488.472656 326.386719 483.96875 321.492188 480.496094 326.105469 C 479.546875 332.320312 485.546875 331.589844 487.320312 335.082031 C 482.007812 337.316406 477.203125 340.050781 471.15625 341.550781 C 469.210938 339.335938 469.730469 337.9375 467.925781 337.238281 C 465.457031 336.285156 462.949219 337.800781 462.539062 340.113281 C 462.015625 343.058594 465.207031 346.046875 467.566406 350.171875 " fill-opacity="1" fill-rule="nonzero"/><path fill="#000000" d="M 257.117188 372.078125 C 261.769531 370.761719 257.496094 365.710938 257.476562 362.382812 C 257.4375 356.140625 263.03125 351.316406 267.171875 348.011719 C 271.894531 350.574219 271.050781 357.636719 271.480469 364.539062 C 271.949219 372.046875 273.453125 385.039062 279.382812 385.011719 C 284.070312 384.988281 287.359375 373.5625 290.15625 369.203125 C 292.195312 366.03125 293.238281 364.542969 295.542969 361.304688 C 297.472656 358.59375 304.652344 350.152344 296.980469 349.8125 C 293.292969 349.644531 289.191406 357.269531 287.644531 359.507812 C 285.066406 363.226562 282.867188 367.203125 280.101562 371.363281 C 278.042969 358.980469 280.480469 344.050781 270.042969 340.832031 C 266.878906 339.855469 263.535156 340.898438 261.785156 341.910156 C 257.28125 344.511719 250.671875 353.75 249.933594 360.226562 C 249.226562 366.445312 252.023438 373.519531 257.117188 372.078125 " fill-opacity="1" fill-rule="nonzero"/><path fill="#27b89b" d="M 226.230469 472.652344 C 223.382812 477.226562 221.417969 482.683594 219.046875 487.734375 C 221.332031 488.046875 223 486.839844 224.792969 487.734375 C 230.820312 493.925781 213.402344 495.960938 212.226562 490.25 C 211.488281 486.671875 215.894531 481.105469 217.253906 478.039062 C 219.371094 473.269531 220.585938 470.011719 223 466.546875 C 220.183594 462.484375 222.269531 460.246094 224.078125 460.078125 C 226.53125 459.851562 232.859375 470.613281 232.695312 472.652344 C 232.394531 476.367188 227.554688 475.917969 226.230469 472.652344 Z M 205.042969 447.867188 C 205.828125 441.242188 211.660156 436.851562 218.332031 441.402344 C 217.566406 435.582031 214.542969 432.019531 214.019531 425.957031 C 220.175781 420.167969 222.527344 434.953125 224.078125 439.964844 C 225.175781 443.515625 229.742188 453.441406 224.792969 454.332031 C 221.253906 454.972656 209.992188 436.480469 210.789062 451.457031 C 210.941406 454.320312 216.957031 466.46875 212.945312 467.625 C 208.632812 468.863281 204.164062 455.253906 205.042969 447.867188 Z M 202.886719 341.550781 C 202.574219 406.128906 201.699219 470.144531 201.09375 534.433594 C 217.347656 526.265625 234.886719 516.269531 251.011719 506.773438 C 234.632812 452.039062 219.425781 396.125 202.886719 341.550781 " fill-opacity="1" fill-rule="nonzero"/><path fill="#27b89b" d="M 561.660156 488.09375 C 553.292969 494.019531 558.414062 478.609375 558.429688 473.011719 C 556.28125 473.8125 555.785156 474.824219 553.398438 474.804688 C 541.125 474.710938 546.675781 443.261719 558.429688 447.867188 C 567.710938 451.507812 563.960938 478.945312 561.660156 488.09375 Z M 519.640625 507.136719 C 533.835938 515.019531 549.488281 523.726562 563.457031 531.558594 C 565.390625 532.644531 567.363281 534.414062 569.5625 534.070312 C 568.707031 470.035156 568.550781 405.292969 567.402344 341.550781 C 551.574219 396.832031 535.644531 452.023438 519.640625 507.136719 " fill-opacity="1" fill-rule="nonzero"/><path fill="#000000" d="M 491.628906 365.972656 C 487.097656 371.65625 497.207031 377.84375 498.09375 383.214844 C 494.273438 383.863281 489.261719 388.628906 493.785156 392.195312 C 497.714844 392.652344 499.234375 390.703125 502.046875 390.039062 C 505.066406 392.585938 505.410156 400.03125 510.304688 399.734375 C 516.925781 399.335938 511.285156 389.222656 508.867188 386.445312 C 511.925781 385.042969 518.167969 382.824219 516.769531 378.1875 C 515.085938 372.609375 507.964844 378.714844 504.917969 379.984375 C 503.839844 376.628906 501.445312 374.589844 500.25 371.363281 C 504.277344 369.238281 516.40625 369.210938 518.925781 365.613281 C 521.351562 362.144531 517.847656 358.726562 514.972656 359.507812 C 510.167969 360.816406 492.984375 364.277344 491.628906 365.972656 " fill-opacity="1" fill-rule="nonzero"/><path fill="#000000" d="M 350.492188 429.90625 C 347.425781 432.976562 339.996094 442.085938 340.792969 447.867188 C 341.628906 453.9375 354.40625 451.304688 360.90625 451.101562 C 369.242188 450.839844 380.714844 453.839844 379.578125 446.789062 C 378.5625 440.476562 356.164062 444.734375 349.773438 443.917969 C 355.289062 430.707031 371.953125 427.933594 375.988281 415.183594 C 377.789062 409.484375 376.308594 402.171875 372.039062 398.300781 C 363.613281 390.65625 350.082031 396.238281 345.460938 402.96875 C 343.402344 405.96875 338.738281 416.742188 346.179688 415.902344 C 349.347656 415.542969 349.117188 411.230469 351.207031 408 C 352.710938 405.679688 354.871094 403.746094 356.953125 402.96875 C 363.148438 400.664062 370.492188 403.757812 369.164062 411.949219 C 367.996094 419.15625 356.089844 424.3125 350.492188 429.90625 " fill-opacity="1" fill-rule="nonzero"/><path fill="#000000" d="M 409.746094 405.84375 C 411.140625 405.140625 413.808594 404.882812 415.492188 404.765625 C 415.453125 404.769531 415.625 404.417969 415.851562 404.40625 C 432.304688 403.496094 433.359375 444.566406 418.367188 446.789062 C 415.894531 447.15625 410.363281 446.488281 407.234375 443.917969 C 398.886719 437.066406 400.734375 410.390625 409.746094 405.84375 Z M 402.566406 450.023438 C 409.492188 455.371094 420.972656 455.488281 426.984375 451.460938 C 430.273438 449.257812 433.660156 443.882812 434.886719 439.609375 C 440.230469 420.96875 433.65625 395.417969 414.773438 397.222656 C 411.386719 397.546875 408.792969 397.9375 406.511719 399.019531 C 392.914062 405.472656 389.367188 439.84375 402.566406 450.023438 " fill-opacity="1" fill-rule="nonzero"/><path fill="#27b89b" d="M 407.234375 443.917969 C 410.367188 446.488281 415.894531 447.15625 418.367188 446.789062 C 433.359375 444.5625 432.304688 403.496094 415.851562 404.40625 C 415.625 404.417969 415.453125 404.769531 415.492188 404.765625 C 413.808594 404.882812 411.140625 405.140625 409.746094 405.839844 C 400.734375 410.386719 398.890625 437.066406 407.234375 443.917969 " fill-opacity="1" fill-rule="nonzero"/><path fill="#000000" d="M 212.945312 467.625 C 216.957031 466.46875 210.941406 454.320312 210.789062 451.460938 C 209.992188 436.484375 221.253906 454.972656 224.792969 454.332031 C 229.742188 453.441406 225.175781 443.515625 224.078125 439.964844 C 222.527344 434.953125 220.175781 420.171875 214.019531 425.957031 C 214.542969 432.019531 217.566406 435.582031 218.328125 441.402344 C 211.660156 436.851562 205.828125 441.242188 205.042969 447.867188 C 204.164062 455.253906 208.632812 468.863281 212.945312 467.625 " fill-opacity="1" fill-rule="nonzero"/><path fill="#000000" d="M 553.039062 469.058594 C 551.183594 463.785156 553.519531 456.980469 555.554688 453.253906 C 559.925781 457.488281 557.222656 466.375 553.039062 469.058594 Z M 558.425781 447.867188 C 546.675781 443.261719 541.125 474.710938 553.398438 474.804688 C 555.785156 474.824219 556.28125 473.8125 558.425781 473.011719 C 558.414062 478.609375 553.292969 494.019531 561.660156 488.09375 C 563.960938 478.945312 567.714844 451.507812 558.425781 447.867188 " fill-opacity="1" fill-rule="nonzero"/><path fill="#27b89b" d="M 553.042969 469.058594 C 557.21875 466.375 559.925781 457.488281 555.554688 453.253906 C 553.519531 456.980469 551.183594 463.785156 553.042969 469.058594 " fill-opacity="1" fill-rule="nonzero"/><path fill="#000000" d="M 224.078125 460.078125 C 222.269531 460.246094 220.183594 462.484375 223 466.546875 C 220.585938 470.011719 219.371094 473.269531 217.253906 478.039062 C 215.894531 481.105469 211.488281 486.671875 212.226562 490.25 C 213.402344 495.960938 230.820312 493.925781 224.792969 487.734375 C 223 486.839844 221.332031 488.046875 219.046875 487.734375 C 221.417969 482.683594 223.382812 477.226562 226.230469 472.652344 C 227.554688 475.917969 232.394531 476.367188 232.695312 472.652344 C 232.859375 470.613281 226.53125 459.851562 224.078125 460.078125 " fill-opacity="1" fill-rule="nonzero"/><path fill="#11e8bd" d="M 397.898438 585.433594 C 388.71875 591.898438 365.792969 587.8125 366.292969 575.738281 C 366.4375 572.171875 368.203125 570.523438 369.882812 567.835938 C 365.960938 565.480469 361.683594 562.472656 361.621094 556.699219 C 361.515625 546.285156 373.863281 544.058594 385.324219 543.410156 C 401.023438 542.523438 410.699219 557.414062 398.253906 566.757812 C 403.292969 571.597656 404.359375 580.882812 397.898438 585.433594 Z M 507.070312 511.441406 C 426.023438 511.679688 344.03125 510.96875 263.582031 511.800781 C 302.742188 554.648438 345.015625 597.496094 384.964844 640.75 C 424.277344 599.160156 465.847656 557.269531 504.199219 515.035156 C 505.339844 513.78125 507.925781 512.617188 507.070312 511.441406 " fill-opacity="1" fill-rule="nonzero"/><path fill="#000000" d="M 524.667969 539.460938 C 520.453125 542.605469 498.292969 541.679688 502.761719 549.875 C 506.277344 550.460938 511.917969 548.796875 517.84375 547.363281 C 522.445312 546.246094 529.671875 545.042969 531.492188 542.691406 C 534.441406 538.882812 527.265625 530.726562 523.589844 535.507812 C 522.871094 537.679688 525.09375 538.773438 524.667969 539.460938 " fill-opacity="1" fill-rule="nonzero"/><path fill="#000000" d="M 270.761719 556.339844 C 263.117188 560.96875 252.601562 555.234375 250.652344 548.4375 C 258.097656 544.335938 271.472656 547.953125 270.761719 556.339844 Z M 273.636719 547.363281 C 270.21875 542.761719 262.269531 539.816406 252.445312 541.613281 C 241.21875 543.667969 245.238281 554.574219 251.730469 559.574219 C 255.765625 562.679688 261.734375 564.039062 266.09375 563.882812 C 276.824219 563.5 279.476562 555.230469 273.636719 547.363281 " fill-opacity="1" fill-rule="nonzero"/><path fill="#000000" d="M 384.609375 563.882812 C 380.988281 561.390625 369.523438 563.1875 369.523438 556.699219 C 369.523438 551.671875 379.101562 551.242188 384.25 550.953125 C 389.800781 550.640625 396.019531 552.351562 396.460938 555.980469 C 397.214844 562.210938 389.195312 562.089844 384.609375 563.882812 Z M 394.664062 577.53125 C 392.882812 583.441406 376.84375 580.210938 373.832031 576.8125 C 373.984375 573.296875 379.472656 570.375 384.25 570.347656 C 388.65625 570.324219 396.410156 571.738281 394.664062 577.53125 Z M 385.324219 543.410156 C 373.863281 544.058594 361.515625 546.285156 361.625 556.699219 C 361.683594 562.472656 365.960938 565.480469 369.882812 567.832031 C 368.207031 570.523438 366.4375 572.171875 366.292969 575.738281 C 365.792969 587.8125 388.71875 591.898438 397.894531 585.433594 C 404.359375 580.882812 403.292969 571.597656 398.253906 566.757812 C 410.699219 557.414062 401.023438 542.523438 385.324219 543.410156 " fill-opacity="1" fill-rule="nonzero"/><path fill="#27b89b" d="M 250.652344 548.4375 C 252.601562 555.234375 263.117188 560.96875 270.761719 556.339844 C 271.472656 547.953125 258.097656 544.335938 250.652344 548.4375 " fill-opacity="1" fill-rule="nonzero"/><path fill="#11e8bd" d="M 384.25 550.953125 C 379.101562 551.242188 369.523438 551.671875 369.523438 556.699219 C 369.523438 563.1875 380.988281 561.390625 384.609375 563.882812 C 389.195312 562.089844 397.214844 562.210938 396.460938 555.980469 C 396.019531 552.351562 389.800781 550.640625 384.25 550.953125 " fill-opacity="1" fill-rule="nonzero"/><path fill="#000000" d="M 474.75 579.6875 C 476.308594 574.0625 480.367188 570.9375 485.164062 568.554688 C 484.8125 573.949219 480.554688 578.550781 474.75 579.6875 Z M 504.917969 561.011719 C 495.878906 557.203125 480.402344 562.644531 474.03125 569.269531 C 470.847656 572.585938 465.421875 583.039062 472.953125 585.433594 C 484.4375 585.101562 491.222656 576.515625 490.910156 566.757812 C 493.542969 565.628906 497.953125 565.347656 501.328125 566.039062 C 502.28125 570.664062 510.335938 573.125 509.226562 565.679688 C 509 564.152344 506.550781 561.699219 504.917969 561.011719 " fill-opacity="1" fill-rule="nonzero"/><path fill="#000000" d="M 291.59375 565.679688 C 287.230469 566.042969 290.019531 571.308594 290.515625 572.503906 C 285.175781 573.273438 272.210938 568.707031 271.839844 573.941406 C 271.722656 575.621094 274.683594 578.328125 276.152344 579.328125 C 278.835938 581.160156 281.878906 581.820312 285.484375 581.84375 C 286.671875 581.109375 286.855469 579.378906 287.285156 577.890625 C 290.382812 577.664062 292.40625 578.515625 295.542969 578.25 C 297.050781 581.632812 302.554688 582.828125 302.722656 578.609375 C 302.804688 576.671875 293.59375 565.511719 291.59375 565.679688 " fill-opacity="1" fill-rule="nonzero"/><path fill="#27b89b" d="M 474.75 579.6875 C 480.558594 578.550781 484.8125 573.949219 485.164062 568.554688 C 480.367188 570.9375 476.308594 574.0625 474.75 579.6875 " fill-opacity="1" fill-rule="nonzero"/><path fill="#11e8bd" d="M 384.246094 570.347656 C 379.472656 570.375 373.984375 573.300781 373.832031 576.8125 C 376.84375 580.210938 392.882812 583.441406 394.664062 577.53125 C 396.410156 571.738281 388.65625 570.324219 384.246094 570.347656 " fill-opacity="1" fill-rule="nonzero"/><path fill="#27b89b" d="M 523.589844 535.507812 C 527.265625 530.726562 534.441406 538.882812 531.492188 542.691406 C 529.671875 545.042969 522.445312 546.246094 517.84375 547.363281 C 511.914062 548.796875 506.277344 550.460938 502.761719 549.875 C 498.292969 541.679688 520.453125 542.605469 524.667969 539.460938 C 525.097656 538.773438 522.867188 537.679688 523.589844 535.507812 Z M 501.328125 566.039062 C 497.949219 565.347656 493.539062 565.628906 490.910156 566.757812 C 491.21875 576.519531 484.433594 585.101562 472.953125 585.433594 C 465.417969 583.039062 470.847656 572.585938 474.03125 569.273438 C 480.402344 562.644531 495.878906 557.203125 504.917969 561.011719 C 506.550781 561.699219 509 564.152344 509.222656 565.679688 C 510.335938 573.125 502.28125 570.667969 501.328125 566.039062 Z M 400.410156 633.921875 C 455.867188 602.46875 512.023438 571.710938 567.402344 540.175781 C 549.914062 530.972656 533.34375 520.847656 515.691406 511.800781 C 477.320312 552.332031 437.519531 593.335938 400.410156 633.921875 " fill-opacity="1" fill-rule="nonzero"/><path fill="#27b89b" d="M 295.542969 578.25 C 292.40625 578.515625 290.382812 577.664062 287.285156 577.890625 C 286.855469 579.378906 286.671875 581.109375 285.484375 581.84375 C 281.878906 581.820312 278.835938 581.160156 276.152344 579.328125 C 274.683594 578.328125 271.722656 575.621094 271.839844 573.941406 C 272.210938 568.707031 285.175781 573.273438 290.515625 572.503906 C 290.019531 571.308594 287.230469 566.042969 291.59375 565.679688 C 293.59375 565.511719 302.804688 576.671875 302.722656 578.609375 C 302.554688 582.828125 297.050781 581.632812 295.542969 578.25 Z M 251.730469 559.574219 C 245.238281 554.574219 241.21875 543.667969 252.445312 541.613281 C 262.269531 539.816406 270.21875 542.761719 273.636719 547.363281 C 279.476562 555.230469 276.824219 563.5 266.09375 563.882812 C 261.734375 564.039062 255.765625 562.679688 251.730469 559.574219 Z M 262.144531 519.34375 C 259.671875 516.824219 257.582031 513.585938 253.882812 512.519531 C 236.515625 521.371094 219.941406 531.011719 203.246094 540.535156 C 259.183594 571.152344 315.144531 603.664062 370.601562 633.566406 C 360.78125 623.511719 351.230469 613.097656 341.511719 602.675781 C 315.433594 574.710938 288.632812 546.375 262.144531 519.34375 " fill-opacity="1" fill-rule="nonzero"/><g fill="#000000" fill-opacity="1"><g transform="translate(175.83311, 296.266506)"><g><path d="M 12.398438 16.519531 C 13.535156 18.519531 16.726562 19.480469 19.957031 20.289062 C 23.863281 18.074219 30.058594 14.558594 33.019531 10.230469 L 36.925781 8.011719 C 45.117188 3.363281 46.792969 -3.007812 49.808594 -7.238281 C 51.253906 -18.890625 53.523438 -33.535156 46.601562 -45.730469 C 44.101562 -55.015625 38.699219 -61.652344 34.054688 -67.832031 C 28.519531 -75.144531 23.621094 -78.664062 17.613281 -82.8125 C 13.4375 -85.734375 8.960938 -88.734375 3.785156 -88.316406 C 0.550781 -89.125 -4.542969 -89.003906 -7.777344 -89.816406 C -8.851562 -89.710938 -9.53125 -88.691406 -9.53125 -88.691406 C -14.917969 -86.640625 -15.96875 -85.164062 -19.875 -82.945312 C -23.972656 -80.621094 -28.070312 -78.296875 -30.933594 -74.023438 L -31.746094 -70.792969 C -32.707031 -67.601562 -34.707031 -66.464844 -33.625 -64.558594 C -30.109375 -58.367188 -28.339844 -64.789062 -24.433594 -67.007812 L -19.78125 -58.8125 C -14.277344 -54 -9.625 -45.808594 -5.082031 -37.804688 C -1.621094 -31.707031 4.976562 -24.746094 10.707031 -14.644531 L 23.417969 7.742188 C 21.417969 8.878906 22.5 10.785156 20.402344 11.976562 Z M -12.507812 -79.066406 C -8.410156 -81.390625 -6.316406 -82.582031 -3.234375 -81.8125 C 6.285156 -79.027344 12.015625 -68.929688 19.847656 -60.019531 L 23.308594 -53.921875 C 28.769531 -48.960938 30.175781 -41.820312 32.503906 -37.726562 C 37.097656 -29.625 41.75 -21.433594 41.0625 -13.105469 C 41.0625 -13.105469 42.195312 -11.105469 40.292969 -10.023438 C 40.292969 -10.023438 38.195312 -8.832031 39.386719 -6.738281 C 37.382812 -5.601562 36.425781 -2.410156 34.421875 -1.273438 C 31.191406 -2.085938 32.097656 -5.371094 29.773438 -9.46875 C 27.554688 -13.375 23.132812 -16.28125 20.808594 -20.378906 L 9.339844 -40.578125 C 5.878906 -46.671875 3.0625 -49.863281 0.519531 -54.339844 C -1.804688 -58.4375 -4.605469 -62.261719 -8.015625 -68.265625 C -9.582031 -71.027344 -13.332031 -76.078125 -12.507812 -79.066406 Z M -12.507812 -79.066406 "/></g></g></g><g fill="#000000" fill-opacity="1"><g transform="translate(234.617223, 262.896196)"><g><path d="M -16.402344 -75.722656 C -12.59375 -77.882812 -12.808594 -82.925781 -15.945312 -83.792969 C -20.839844 -83.535156 -27.570312 -77.195312 -31.570312 -74.921875 C -35.382812 -72.757812 -38.464844 -73.527344 -37.382812 -71.621094 L -35.164062 -67.714844 C -34.03125 -65.714844 -32.027344 -66.851562 -30.21875 -67.878906 C -23.566406 -56.160156 -16.914062 -44.441406 -11.34375 -34.628906 L -1.335938 -17.003906 C -0.203125 -15.003906 1.542969 -12.59375 1.542969 -12.59375 C 4.84375 -6.78125 7.53125 -1.378906 10.9375 4.625 C 12.074219 6.625 16.238281 9.300781 15.375 12.4375 C 14.699219 15.464844 11.5625 14.601562 12.699219 16.601562 C 11.726562 19.546875 14.863281 20.410156 14.863281 20.410156 C 21.808594 19.113281 28.488281 12.675781 33.625 12.40625 C 34.488281 9.269531 36.300781 8.242188 35.164062 6.242188 C 32.324219 5.460938 30.324219 6.59375 27.1875 5.730469 C 14.910156 -15.898438 4.128906 -37.996094 -6.398438 -58.097656 C -9.5625 -64.109375 -15.105469 -68.773438 -16.402344 -75.722656 Z M -16.402344 -75.722656 "/></g></g></g><g fill="#000000" fill-opacity="1"><g transform="translate(261.294024, 247.752425)"><g><path d="M 9.949219 -92.320312 C 3.71875 -94.199219 -0.28125 -91.925781 -7.367188 -90.425781 C -17.179688 -84.855469 -21.679688 -74.363281 -22.476562 -66.226562 C -23.519531 -62.738281 -22.113281 -61.144531 -22.882812 -58.0625 C -20.726562 -46.9375 -15.730469 -35.917969 -12.007812 -24.929688 C -5.304688 -13.113281 5.457031 -3.476562 13.03125 5.199219 C 20.25 9.039062 25.535156 8.808594 31.699219 10.347656 C 42.648438 6.777344 62.738281 0.667969 61.167969 -11.417969 L 53.269531 -25.328125 C 51.367188 -24.246094 50.175781 -26.34375 46.078125 -24.015625 C 46.445312 -18.933594 51.757812 -14.011719 52.070312 -9.023438 C 49.257812 -4.65625 46.433594 -0.535156 41.351562 -0.167969 C 31.117188 0.222656 19.367188 -11.375 10.511719 -22.09375 L 3.804688 -33.90625 C -1.820312 -43.816406 -5.226562 -49.816406 -7.621094 -58.914062 C -6.796875 -61.902344 -7.984375 -63.996094 -7.984375 -63.996094 C -7.066406 -67.039062 -8.566406 -74.121094 -7.609375 -77.3125 C -4.785156 -81.4375 1.125 -84.789062 8.207031 -86.292969 C 11.25 -85.371094 13.832031 -76.382812 17.738281 -78.601562 C 19.835938 -79.789062 16.535156 -85.601562 14.210938 -89.699219 C 13.128906 -91.605469 11.03125 -90.414062 9.949219 -92.320312 Z M 9.949219 -92.320312 "/></g></g></g><g fill="#000000" fill-opacity="1"><g transform="translate(314.17116, 217.735363)"><g><path d="M 11.125 -80.261719 C 18.9375 -84.699219 10.652344 -90.199219 8.433594 -94.105469 C 7.296875 -96.105469 4.214844 -96.875 4.214844 -96.875 L -15.21875 -85.839844 C -21.953125 -79.5 -29.667969 -75.121094 -36.34375 -68.683594 C -36.34375 -68.683594 -34.128906 -64.777344 -34.128906 -64.777344 L -26.316406 -69.214844 C -23.070312 -63.496094 -19.71875 -57.589844 -16.417969 -51.777344 L -12.035156 -44.0625 C -7.601562 -36.25 -4.304688 -30.4375 -0.949219 -24.53125 L 1.269531 -20.625 C 7.972656 -8.808594 15.382812 -0.417969 19.980469 12.339844 C 18.074219 13.421875 14.167969 15.640625 12.167969 16.777344 L 14.386719 20.683594 C 27.144531 16.085938 36.957031 10.511719 46.582031 5.050781 L 56.394531 -0.519531 C 57.164062 -3.601562 58.082031 -6.644531 56.945312 -8.644531 C 54.730469 -12.550781 51.484375 -18.265625 47.578125 -16.050781 C 44.753906 -11.925781 51.960938 -8.332031 49.132812 -4.210938 C 43.226562 -0.855469 39.417969 1.308594 32.523438 2.699219 C 30.359375 -1.109375 25.515625 -8.3125 22.164062 -14.21875 C 18.917969 -19.933594 12.890625 -27.222656 11.539062 -34.265625 C 13.445312 -35.347656 19.351562 -38.699219 21.160156 -39.726562 L 22.296875 -37.726562 C 23.378906 -35.820312 28.421875 -36.039062 28.421875 -36.039062 C 32.328125 -38.253906 21.714844 -47.851562 21.550781 -52.796875 C 18.46875 -53.566406 18.46875 -53.566406 16.5625 -52.488281 C 14.5625 -51.351562 16.78125 -47.445312 17.808594 -45.632812 C 13.996094 -43.472656 8.183594 -40.171875 5.15625 -40.847656 C 4.941406 -45.886719 0.722656 -48.660156 -2.632812 -54.566406 C -4.792969 -58.375 -6.132812 -61.398438 -9.214844 -66.828125 C -11.703125 -71.210938 -13.664062 -74 -12.691406 -76.949219 C -9.921875 -81.164062 -4.203125 -84.410156 -0.296875 -86.628906 C 2.242188 -86.8125 2.242188 -86.8125 4.742188 -86.84375 C 7.773438 -86.171875 7.988281 -81.128906 11.125 -80.261719 Z M 11.125 -80.261719 "/></g></g></g><g fill="#000000" fill-opacity="1"><g transform="translate(363.650745, 189.647007)"><g/></g></g><g fill="#000000" fill-opacity="1"><g transform="translate(394.686973, 182.941956)"><g><path d="M 58.558594 -5.378906 C 59.746094 -7.476562 57.648438 -8.664062 58.78125 -10.667969 L 62.066406 -11.578125 C 65.050781 -12.40625 70.003906 -14.261719 72.710938 -16.378906 C 78.128906 -20.613281 80.679688 -28.234375 81.941406 -32.679688 C 85.769531 -46.121094 68.496094 -56.527344 54.914062 -61.445312 C 53.007812 -62.523438 51.691406 -61.757812 49.691406 -62.890625 C 43.492188 -66.398438 40.769531 -67.8125 37.371094 -61.808594 C 36.183594 -59.710938 39.128906 -56.910156 43.132812 -54.640625 C 37.308594 -44.34375 34.929688 -37.253906 29.449219 -28.902344 C 27.640625 -26.152344 26.945312 -26.039062 25.757812 -23.941406 C 25.589844 -18.75 21.121094 -15.742188 18.851562 -11.738281 L -0.839844 23.0625 C -2.9375 21.875 -4.847656 20.796875 -8.023438 21.515625 C -8.300781 26.898438 -6.394531 27.976562 -2.199219 30.351562 C 2.898438 30.46875 10.710938 36.902344 14.714844 39.167969 C 16.71875 40.300781 17.296875 38.613281 18.484375 36.515625 C 19.5625 34.609375 15.460938 32.289062 16.59375 30.289062 C 17.0625 25.015625 19.328125 21.007812 21.703125 16.8125 C 26.289062 8.710938 31.152344 -4.777344 39.078125 -13.886719 C 40.15625 -15.792969 42.0625 -14.714844 44.160156 -13.527344 C 45.085938 -10.488281 47.183594 -9.300781 45.996094 -7.203125 C 46.90625 -3.917969 46.640625 -2.558594 46.921875 0.496094 C 47.753906 10.15625 40.839844 17.699219 37.707031 26.125 C 32.792969 39.707031 25.195312 39.5625 27.125 45.9375 C 32.5625 49.898438 40.144531 56.078125 43.597656 49.972656 C 44.730469 47.972656 42.824219 46.894531 40.726562 45.707031 C 46.773438 30.121094 60.835938 9.503906 58.558594 -5.378906 Z M 57.835938 -51.484375 C 59.742188 -50.402344 65.859375 -47.195312 67.957031 -46.007812 C 68.921875 -42.820312 70.070312 -40.40625 68.453125 -37.542969 C 66.1875 -33.539062 67.164062 -33.488281 63.8125 -29.34375 C 61.769531 -26.851562 58.507812 -24.417969 57.320312 -22.320312 C 54.035156 -21.410156 42.886719 -23.0625 44.355469 -25.878906 C 49.488281 -36.066406 53.195312 -43.285156 57.835938 -51.484375 Z M 57.835938 -51.484375 "/></g></g></g><g fill="#000000" fill-opacity="1"><g transform="translate(451.322202, 214.993494)"><g><path d="M 38.125 40.960938 C 46.023438 36.117188 53 30.246094 60.453125 21.75 C 66.78125 15.007812 70.488281 7.792969 73.78125 1.976562 C 76.261719 -2.410156 77.394531 -4.410156 79.226562 -8.535156 C 83.9375 -19.085938 84.476562 -30.492188 80.777344 -37.746094 C 80.214844 -45.867188 77.382812 -49.988281 69.757812 -54.304688 C 57.160156 -64.078125 46.613281 -54.5625 36.425781 -50.128906 C 33.34375 -49.355469 31.121094 -45.203125 27.847656 -41.644531 C 26.714844 -39.640625 24.578125 -37.199219 22.589844 -34.800781 C 18.761719 -30.039062 18.164062 -26.980469 15.953125 -23.070312 C 11.527344 -15.253906 7.101562 -7.433594 4.695312 1.269531 C 3.351562 8.316406 2.964844 13.890625 2.835938 18.347656 C 2.488281 29.859375 12.226562 44.683594 29.492188 43.753906 C 31.800781 43.675781 35.441406 42.589844 38.125 40.960938 Z M 30.394531 34.824219 C 26.914062 37.636719 16.3125 33.902344 15.027344 29.277344 C 14.449219 27.183594 16.46875 26.0625 14.5625 24.984375 C 13.691406 21.847656 15.90625 17.9375 16.210938 12.949219 C 20.738281 0.28125 27.679688 -16.433594 38.4375 -30.992188 C 40.648438 -34.902344 42.859375 -38.8125 47.074219 -41.585938 C 52.273438 -46.324219 56.433594 -49.003906 62.554688 -50.699219 C 66.464844 -48.488281 66.535156 -47.945312 70.253906 -45.839844 C 73.082031 -41.722656 71.722656 -35.316406 71.417969 -30.328125 C 71.207031 -25.285156 68.996094 -21.375 68.691406 -16.386719 C 66.476562 -12.480469 65.042969 -8.382812 62.828125 -4.472656 C 60.671875 -0.660156 58.761719 1.15625 56.550781 5.066406 C 53.257812 10.878906 49.914062 16.792969 44.714844 21.527344 C 41.023438 25.605469 34.078125 31.875 30.394531 34.824219 Z M 30.394531 34.824219 "/></g></g></g><g fill="#000000" fill-opacity="1"><g transform="translate(509.864372, 248.124224)"><g><path d="M 66.308594 -53.109375 C 67.605469 -55.398438 68.09375 -55.371094 66.292969 -56.640625 C 60.527344 -60.910156 51.5625 -63.972656 45.746094 -67.265625 C 45.746094 -67.265625 43.648438 -68.449219 43.648438 -68.449219 L 41.382812 -64.445312 C 42.398438 -61.351562 44.308594 -60.273438 43.226562 -58.367188 C 41.832031 -51.226562 37.40625 -43.40625 33.953125 -37.304688 C 30.660156 -31.488281 27.316406 -25.578125 23.96875 -19.667969 L 22.78125 -17.570312 C 17.226562 -7.75 9.402344 6.074219 1.789062 14.859375 C -0.480469 18.863281 -1.558594 20.769531 -4.597656 21.691406 C -6.695312 20.507812 -8.601562 19.425781 -9.679688 21.332031 C -10.867188 23.429688 -8.960938 24.511719 -7.945312 27.605469 C 2.957031 31.253906 13.699219 39.851562 26.695312 44.691406 C 29.792969 43.671875 30.097656 38.683594 31.175781 36.777344 C 34.519531 30.867188 40.960938 23.9375 39.359375 17.867188 C 39.359375 17.867188 38.339844 14.773438 35.355469 15.601562 L 30.875 23.515625 C 28.609375 27.519531 26.453125 31.335938 24.183594 35.339844 L 22.085938 34.152344 C 19.648438 32.898438 18.179688 31.9375 18.179688 31.9375 C 16.273438 30.859375 16.3125 31.007812 14.363281 29.78125 C 12.226562 28.445312 12.265625 28.59375 13.347656 26.6875 C 27.140625 -2.136719 44.582031 -23.613281 59.148438 -49.355469 C 60.230469 -51.261719 62.136719 -50.183594 66.308594 -53.109375 Z M 66.308594 -53.109375 "/></g></g></g><g fill="#000000" fill-opacity="1"><g transform="translate(552.102441, 272.027986)"><g><path d="M 66.308594 -53.109375 C 67.605469 -55.398438 68.09375 -55.371094 66.292969 -56.640625 C 60.527344 -60.910156 51.5625 -63.972656 45.746094 -67.265625 C 45.746094 -67.265625 43.648438 -68.449219 43.648438 -68.449219 L 41.382812 -64.445312 C 42.398438 -61.351562 44.308594 -60.273438 43.226562 -58.367188 C 41.832031 -51.226562 37.40625 -43.40625 33.953125 -37.304688 C 30.660156 -31.488281 27.316406 -25.578125 23.96875 -19.667969 L 22.78125 -17.570312 C 17.226562 -7.75 9.402344 6.074219 1.789062 14.859375 C -0.480469 18.863281 -1.558594 20.769531 -4.597656 21.691406 C -6.695312 20.507812 -8.601562 19.425781 -9.679688 21.332031 C -10.867188 23.429688 -8.960938 24.511719 -7.945312 27.605469 C 2.957031 31.253906 13.699219 39.851562 26.695312 44.691406 C 29.792969 43.671875 30.097656 38.683594 31.175781 36.777344 C 34.519531 30.867188 40.960938 23.9375 39.359375 17.867188 C 39.359375 17.867188 38.339844 14.773438 35.355469 15.601562 L 30.875 23.515625 C 28.609375 27.519531 26.453125 31.335938 24.183594 35.339844 L 22.085938 34.152344 C 19.648438 32.898438 18.179688 31.9375 18.179688 31.9375 C 16.273438 30.859375 16.3125 31.007812 14.363281 29.78125 C 12.226562 28.445312 12.265625 28.59375 13.347656 26.6875 C 27.140625 -2.136719 44.582031 -23.613281 59.148438 -49.355469 C 60.230469 -51.261719 62.136719 -50.183594 66.308594 -53.109375 Z M 66.308594 -53.109375 "/></g></g></g></svg>